<svg width="1440" height="1024" viewBox="0 0 1440 1024" fill="none" xmlns="http://www.w3.org/2000/svg">
<path d="M1044.41 402.258C1044.41 402.258 1044.53 401.771 1044.76 400.906L1044.96 401.956L1044.41 402.258Z" fill="#243747"/>
<path d="M-16.0121 476.394C-16.0121 476.394 558.664 455.748 738.934 460.662C919.205 465.578 1458.02 441 1458.02 441L1464 616L-19 528.498L-16.0121 476.394Z" fill="#638B66"/>
<path d="M1462.53 456.541C1462.53 456.541 1205.53 468.535 1068.46 472.818C931.392 477.103 838.016 489.097 838.016 489.097C838.016 489.097 1107.01 480.531 1186.68 481.386C1266.35 482.241 1397.42 466.822 1397.42 466.822C1397.42 466.822 1146.41 494.236 1110.43 494.236C1074.45 494.236 1039.33 498.519 1039.33 498.519C1039.33 498.519 1191.82 507.085 1214.95 502.802C1238.08 498.519 1388 482.241 1388 482.241L1460.82 484.812L1462.53 456.541Z" fill="#527B55"/>
<path d="M-19.1133 494.187C-19.1133 494.187 454.005 491.247 592.12 491.247C730.235 491.247 1231.76 496.147 1459.99 581.365C1459.01 744.948 1459.99 1477.18 1459.99 1477.18H9.29369L-19.1133 494.187Z" fill="#A9CDC2"/>
<path d="M1181.96 526.65C1181.96 526.65 1255.31 620.16 1447.82 669.665C1493.66 686.165 1493.66 686.165 1493.66 686.165L1467.99 550.486L1181.96 526.65Z" fill="#7EAEAA"/>
<path d="M957.887 621.334C957.887 621.334 919.777 695.332 719.928 733.837C520.078 772.341 -7.9668 772.341 -7.9668 772.341L-2.46519 664.162L957.887 621.334Z" fill="#7EAEAA"/>
<path d="M1486.32 913.519C1486.32 913.519 1084.79 931.852 859.269 992.357C718.317 1030.17 631.798 1021.43 537.49 1012.7C480.908 1007.45 421.522 1002.21 345.894 1007.02C144.21 1019.86 -11.6357 997.858 -11.6357 997.858L-7.96846 1263.71L708.925 1384.72L1462.25 1169.45L1486.32 913.519Z" fill="#7EAEAA"/>
<path d="M274.387 766.843C274.387 766.843 1007.78 744.839 1029.78 781.512C1051.79 818.181 360.561 827.347 366.062 853.017C371.562 878.683 752.927 865.851 760.26 906.187C767.596 946.524 -9.80438 939.191 -9.80438 939.191L-22.6387 772.343L274.387 766.843Z" fill="white"/>
<path d="M21.365 900.685C21.365 900.685 336.725 887.852 353.227 911.689C369.728 935.522 -176.652 961.191 21.365 900.685Z" fill="#A9CDC2"/>
<path d="M281.163 784.402C281.163 784.402 525.68 774.451 538.474 792.933C551.268 811.414 127.629 831.316 281.163 784.402Z" fill="#A9CDC2"/>
<path d="M814.735 523.503C814.735 523.503 1068.18 527.913 1200.42 545.543C1085.82 548.846 934.848 548.846 934.848 548.846C934.848 548.846 1203.72 557.663 1285.27 564.276C1169.56 566.479 905.094 562.071 901.79 563.172C962.394 556.563 998.764 555.459 998.764 555.459L861.017 549.95L1009.78 536.727L814.735 523.503Z" fill="white"/>
<path d="M1529 989.952C1529 989.952 900.693 1009.51 477.746 1315.11C475.303 1469.13 475.303 1469.13 475.303 1469.13L1460.55 1466.68L1529 989.952Z" fill="#688429"/>
<path d="M157.87 1428.95C189.415 1376.37 231.529 1349.87 255.885 1338.1C258.995 1320.8 261.172 1302.41 261.923 1283.18C238.366 1311.68 186.054 1372.43 135.901 1413.26C139.699 1407.55 227.188 1284.49 260.898 1237.07C259.973 1226.11 258.527 1214.94 256.495 1203.61C246.903 1223.56 225.755 1262.07 186.902 1308.89C193.193 1220.27 231.561 1191.24 251.916 1182.01C248.789 1169.16 244.89 1156.15 240.079 1143C201.195 1178.36 167.673 1268.51 136.684 1334.01C151.2 1276.61 210.088 1153.2 228.466 1115.38C223.807 1105.86 218.733 1097.04 213.302 1088.89C206.662 1133.38 171.397 1225.05 148.452 1256.33L195.394 1065.68C192.012 1061.89 188.545 1058.29 184.997 1054.87C178.39 1083.66 143.935 1232.7 124.132 1296.35C124.132 1278.93 164.926 1087.83 174.097 1045.09C170.744 1042.3 167.333 1039.64 163.873 1037.13C161.257 1053.53 155.507 1083.48 144.532 1115.89C135.624 1080.78 144.909 1047.44 152.062 1029.16C137.236 1019.88 121.731 1012.82 106.124 1007.49C112.872 1047.81 127.385 1148.03 119.424 1223.38C118.188 1168.97 96.0128 1049.83 86.6585 1001.71C75.6926 998.929 64.7944 996.899 54.1657 995.484C63.9618 1025.53 78.8982 1077.22 89.6097 1140.99C72.4081 1085.82 40.861 1021.26 26.4869 993.027C19.6734 992.708 13.0677 992.602 6.73413 992.664C62.9532 1082.96 109.879 1233.54 107.654 1356.76C74.9839 1264.19 -2.56463 1049.4 -22.5409 994.103C-48.3086 996.387 -64.9614 1000.55 -64.9614 1000.55L-64.5184 1023.5C-29.9084 1081.29 33.4594 1195.08 66.0699 1303.41C38.5422 1252.1 -34.894 1124.95 -63.5119 1075.55L-61.9894 1154.32C-41.3058 1179.94 -7.38713 1225.87 18.9936 1280.66C1.08192 1243.29 -36.8582 1215.95 -61.0793 1201.46L-55.5462 1487.78H198.666C198.666 1487.78 222.298 1453.14 240.741 1397.48C216.581 1408.5 185.026 1421.65 157.87 1428.95Z" fill="#334D20"/>
<path d="M-15.832 508.802C-15.832 508.802 633.59 505.736 772.719 531.307C911.85 556.885 957.886 621.334 957.886 621.334L720.546 647.93C720.546 647.93 545.61 661.231 542.542 661.231C539.474 661.231 424.895 665.324 424.895 665.324L-12.7637 689.876L-15.832 508.802Z" fill="#688429"/>
<path d="M1478.6 126.191C1478.6 126.191 1325.15 71.9711 1303.67 82.2024C1282.19 92.4302 1469.4 167.112 1469.4 167.112L1478.6 126.191Z" fill="white"/>
<path d="M1466.95 101.248L1467.35 81.1763C1467.35 81.1763 1296.51 49.4649 1292.41 54.5788C1289.18 71.5498 1414.26 92.9905 1466.95 101.248Z" fill="white"/>
<path d="M873.933 561.973C871.49 563.171 869.869 565.06 869.814 567.983C869.576 580.601 877.434 587.743 854.097 587.743C830.758 587.743 861.24 602.036 829.329 601.798C797.421 601.557 827.185 624.419 785.514 625.134C743.839 625.848 747.651 650.376 690.258 637.279C632.868 624.181 557.857 630.133 534.042 640.373C514.467 648.793 464.64 660.587 447.528 664.519C481.085 663.326 540.346 661.231 542.543 661.231C545.611 661.231 720.546 647.93 720.546 647.93L862.591 632.014L957.887 621.334C957.887 621.334 935.289 589.706 873.933 561.973Z" fill="#2D465F"/>
<path d="M863.144 634.656C863.144 634.656 855.049 597.032 879.815 597.032C904.578 597.032 915.772 632.038 915.772 632.038L863.144 634.656Z" fill="#24394B"/>
<path d="M906.836 636.53C906.836 636.53 901.123 608.906 924.695 610.097C948.272 611.288 952.205 633.282 952.205 633.282C952.205 633.282 908.265 635.577 906.836 636.53Z" fill="#3C5B75"/>
<path d="M774.56 653.71C774.56 653.71 781.704 624.181 814.088 626.086C846.476 627.99 851.001 648.707 851.001 648.707L774.56 653.71Z" fill="#24394B"/>
<path d="M812.424 654.421C812.424 654.421 828.853 638.944 838.379 636.564C847.904 634.179 867.67 643.946 867.67 643.946L880.531 651.089L812.424 654.421Z" fill="#3C5B75"/>
<path d="M650.491 659.901C650.491 659.901 667.397 639.896 675.017 639.182C682.639 638.467 716.929 645.612 716.929 645.612L729.076 658.949L650.491 659.901Z" fill="#24394B"/>
<path d="M624.057 661.09C624.057 661.09 635.247 646.564 643.346 645.135C651.44 643.708 683.829 663.948 683.829 663.948L624.057 661.09Z" fill="#3C5B75"/>
<path d="M508.323 664.666C508.323 664.666 505.229 635.132 532.853 634.421C560.475 633.706 588.337 663.234 588.337 663.234L508.323 664.666Z" fill="#24394B"/>
<path d="M470.696 669.429C470.696 669.429 483.557 648.474 493.32 647.757C503.084 647.044 514.99 667.284 514.99 667.284C514.99 667.284 469.03 669.189 470.696 669.429Z" fill="#3C5B75"/>
<path d="M928.959 629.711C928.959 629.711 938.716 607.942 945.868 607.325C979.755 604.401 975.496 627.56 975.496 627.56L928.959 629.711Z" fill="#24394B"/>
<path d="M934.148 530.875C934.148 530.875 939.675 520.51 954.534 520.51C969.392 520.51 965.245 531.567 965.245 531.567L934.148 530.875Z" fill="#24394B"/>
<path d="M650.255 497.293C650.255 497.293 736.563 491.405 735.384 483.743C734.207 476.085 402.822 464.302 402.822 464.302L430.453 462.2C430.453 462.2 637.589 471.96 678.239 474.612C718.888 477.26 769.261 478.735 769.261 483.743C769.261 488.753 721.54 496.704 721.54 496.704" fill="#A9CDC2"/>
<path d="M1197.8 15.3156C1197.8 15.3156 738.8 2.03828 570.942 -29.2585C570.942 -29.2585 572.837 -52.9693 624.049 -43.4781C675.261 -34.0041 693.28 -94.703 765.355 -72.8768C837.429 -51.0677 881.052 1.09088 967.352 -21.6707C1053.65 -44.4375 1062.19 1.09082 1197.8 15.3156Z" fill="white"/>
<path d="M800.298 190.297C800.298 190.297 624.446 185.212 560.137 173.222C560.137 173.222 560.864 164.14 580.483 167.772C600.103 171.404 607.007 148.151 634.619 156.509C662.232 164.866 678.946 184.849 712.008 176.127C745.071 167.409 748.343 184.849 800.298 190.297Z" fill="white"/>
<path d="M719.155 105.032C719.155 105.032 151.094 55.7197 -104.961 -56.1902C-90.7354 -101.71 -19.6098 -45.7567 30.652 -78.9415C80.9143 -112.143 170.06 -141.542 270.585 -43.8551C371.111 53.8232 438.443 -3.07912 485.86 50.9759C533.278 105.033 630.961 56.667 719.155 105.032Z" fill="white"/>
<path d="M858.16 393.36C858.16 393.36 160.396 387.051 -161.52 281.701C-147.903 228.418 -56.4318 286.105 2.20927 243.746C60.8496 201.367 167.286 159.91 298.102 262.708C428.917 365.496 506.447 294.524 568.809 352.13C631.173 409.739 746.472 345.849 858.16 393.36Z" fill="white"/>
<path d="M-180 -34.3298C-180 -34.3298 11.1647 50.5372 239.849 102.346C-47.7928 66.6156 -180 -34.3298 -180 -34.3298Z" fill="white"/>
<path d="M1465.22 478.705C1465.22 478.705 1263.78 474.209 1173.25 526.386C1307.66 543.318 1461.08 583.745 1461.08 583.745L1465.22 478.705Z" fill="#2D465F"/>
<path d="M1342.56 564.046C1342.56 564.046 1356.39 549.189 1369.86 548.845C1383.33 548.499 1392.67 566.121 1392.67 566.121L1342.56 564.046Z" fill="#3C5B75"/>
<path d="M1273.8 582.362C1273.8 582.362 1283.13 555.752 1293.5 556.098C1303.86 556.446 1308.01 582.362 1308.01 582.362H1273.8Z" fill="#24394B"/>
<path d="M1301.79 572.34C1301.79 572.34 1312.15 569.921 1314.23 582.708C1301.79 582.708 1296.61 582.708 1296.61 582.708C1296.61 582.708 1295.57 575.795 1301.79 572.34Z" fill="#3C5B75"/>
<path d="M1136.97 522.24C1136.97 522.24 1144.58 507.038 1157.01 506.344C1169.45 505.652 1174.29 521.891 1174.29 521.891L1136.97 522.24Z" fill="#24394B"/>
<path d="M1162.2 533.64C1162.2 533.64 1163.93 526.039 1171.87 526.039C1179.82 526.039 1181.55 533.64 1181.55 533.64H1162.2Z" fill="#24394B"/>
<path d="M1182.24 491.833C1182.24 491.833 1176.02 474.557 1193.64 473.52C1211.26 472.484 1213.34 491.833 1224.05 485.614C1234.76 479.395 1246.51 482.158 1252.38 486.306C1258.26 490.449 1258.26 476.974 1271.73 487.341C1243.05 489.415 1182.24 491.833 1182.24 491.833Z" fill="#396B39"/>
<path d="M1210.16 509.926C1213.11 510.584 1216.53 512.61 1219.9 517.401C1228.88 530.184 1266.2 504.964 1271.73 519.477C1277.26 533.988 1309.39 509.799 1315.96 526.731C1322.52 543.66 1286.93 545.735 1348.78 545.387C1410.63 545.043 1415.47 539.861 1407.18 550.916C1398.88 561.975 1430.67 541.243 1455.2 554.37C1457.73 555.725 1460.02 556.689 1462.12 557.354L1465.22 478.704C1465.22 478.704 1309.3 475.228 1210.16 509.926Z" fill="#62902D"/>
<path d="M146.706 797.234C146.706 797.234 241.374 742.764 254.343 744.061C267.31 745.358 334.745 779.077 334.745 779.077L346.417 820.572L136.33 830.949C136.33 830.949 125.957 811.496 146.706 797.234Z" fill="#3C5B75"/>
<path d="M378.215 832.577C378.215 832.577 -7.96758 937.353 133.212 823.679C274.39 798.008 378.215 832.577 378.215 832.577Z" fill="#7EAEAA"/>
<path d="M277.407 833.002C277.407 831.301 290.165 803.653 305.48 798.972C320.792 794.294 348.865 785.363 362.476 807.48C376.089 829.598 378.216 832.577 378.216 832.577L277.407 833.002Z" fill="#24394B"/>
<path d="M1381.15 471.185C1381.15 471.185 1385.56 452.121 1400.68 455.376C1415.79 458.631 1409.74 465.605 1426.02 460.258C1442.3 454.91 1449.97 467.464 1449.97 467.464L1381.15 471.185Z" fill="#396B39"/>
<path d="M995.419 475.835C995.419 475.835 1000.07 462.814 1014.48 462.581C1028.9 462.348 1029.36 476.998 1043.32 469.092C1057.27 461.187 1077.03 473.277 1077.03 473.277L995.419 475.835Z" fill="#396B39"/>
<path d="M952.638 481.415C952.638 481.415 960.077 468.161 974.725 468.859C989.373 469.558 999.369 484.67 999.369 484.67L951.242 485.367L952.638 481.415Z" fill="#396B39"/>
<path d="M1085.4 481.881C1085.4 481.881 1090.28 465.604 1101.91 467.233C1113.53 468.861 1119.35 480.022 1119.35 480.022L1085.4 481.881Z" fill="#396B39"/>
<path d="M372.622 476.551C372.622 476.551 604.062 478.996 641.547 480.625C679.033 482.256 444.335 499.369 372.622 476.551Z" fill="#527B55"/>
<path d="M680.663 464.327C680.663 464.327 927.587 460.253 943.07 462.698C883.58 472.479 732.816 480.628 677.402 464.327" fill="#527B55"/>
<path d="M48.2832 485.516C48.2832 485.516 291.13 473.294 368.548 487.959C316.393 489.592 48.2832 485.516 48.2832 485.516Z" fill="#527B55"/>
<path d="M-3 640.212V612.143C47.1969 611.638 299.711 608.967 299.711 608.967L-3 640.212ZM-3 611.987V552.842C112.29 546.75 322.671 537 488.351 537C568.709 537 638.507 539.291 681.912 545.403C431.728 547.848 33.2308 577.999 37.3057 577.999C41.38 577.999 461.881 571.48 467.587 571.48C334.079 601.555 50.0188 610.5 -3 611.987Z" fill="#9B9921"/>
<path d="M545.388 622.425L763.787 607.755C763.787 607.755 754.618 607.972 739.202 607.972C694.88 607.972 598.937 606.177 520.938 592.273C542.487 588.146 575.622 586.664 612.151 586.664C705.476 586.664 820.831 596.347 820.831 596.347C815.942 611.831 545.388 622.425 545.388 622.425Z" fill="#9B9921"/>
<path d="M111.033 680.283L435.372 631.389C406.85 670.503 242.235 670.503 111.033 680.283Z" fill="#9B9921"/>
<path d="M1492.22 488.194C1492.22 488.194 1367.03 493.608 1321.89 503.839C1394.12 502.035 1472.96 514.675 1472.96 514.675L1356.2 518.886L1486.19 542.359L1493.42 489.998" fill="#5D7F2A"/>
<path d="M607.366 597.042C607.202 595.634 607.075 593.82 607.118 591.668C610.164 592.62 614.406 593.546 618.983 593.326C618.56 593.186 611.882 589.496 607.44 587.03L607.483 586.67C612.602 588.916 621.918 592.672 630.945 594.601C621.377 592.286 612.583 582.769 609.168 578.678C609.247 578.404 609.33 578.132 609.415 577.853C610.16 575.457 611.096 573.292 612.275 571.356C614.587 574.34 620.882 582.118 628.075 588.243C628.308 582.209 620.988 571.332 617.012 565.886C618.315 564.82 619.783 563.88 621.437 563.061C623.421 568.653 630.109 582.86 647.693 585.908C639.902 581.55 628.831 565.747 625.824 561.317C626.854 560.993 627.937 560.702 629.079 560.446C630.26 563.455 634.644 572.545 647.056 581.139C647.604 577.597 637.609 563.472 634.736 559.502C635.569 559.405 636.426 559.319 637.308 559.249C638.769 561.752 643.563 569.804 649.127 577.644C648.242 574.865 644.037 563.537 642.345 558.987C643.761 558.947 645.1 558.827 646.366 558.641C647.28 563.669 649.497 578.166 654.073 586.333C653.114 580.503 656.943 576.475 657.102 570.542C657.234 565.694 651.73 559.932 649.703 557.978C652.172 557.358 654.375 556.499 656.453 555.564C656.814 557.212 657.918 561.466 660.292 565.456C662.53 562.55 660.75 557.539 659.163 554.284C662.605 552.6 665.857 550.892 669.631 549.95C668.803 554.598 666.419 564.635 660.292 573.402C651.999 585.274 657.743 586.437 657.743 586.437C657.743 586.437 657.102 579.23 666.196 573.614C674.647 568.394 675.377 558.403 673.77 549.276C676.263 549.088 679.026 549.263 682.202 549.96C681.13 553.03 677.126 565.492 677.679 578.915C688.515 573.839 687.561 558.087 686.562 551.171C688.459 551.8 690.484 552.595 692.673 553.585L692.833 553.659C691.86 557.15 690.102 563.504 688.205 570.647C693.331 567.368 696.143 560.972 697.575 556.331C698.507 556.974 699.377 557.645 700.182 558.353C696.722 564.037 690.869 574.056 688.363 580.715C693.902 575.087 700.623 567.347 704.351 562.98C706.124 565.495 707.383 568.216 708.245 571.001C700.845 575.747 685.714 586.299 676.244 598.731C685.627 595.615 700.91 584.508 709.627 577.806C709.745 578.892 709.819 579.974 709.855 581.039C702.339 584.995 691.212 591.692 689.96 597.249C696.288 592.459 704.066 588.541 709.775 585.989C709.24 594.412 706.864 600.957 706.864 600.957L614.589 600.462C613.117 599.144 609.996 597.914 607.366 597.042Z" fill="#CFAB16"/>
<path d="M447.74 638.985C447.65 638.216 447.583 637.222 447.603 636.04C449.274 636.564 451.597 637.071 454.108 636.95C453.874 636.874 450.214 634.851 447.782 633.499L447.806 633.304C450.608 634.534 455.715 636.59 460.661 637.649C455.417 636.383 450.6 631.166 448.729 628.923L448.864 628.471C449.27 627.157 449.784 625.971 450.43 624.909C451.698 626.545 455.148 630.808 459.089 634.164C459.217 630.859 455.205 624.897 453.026 621.913C453.74 621.329 454.545 620.813 455.452 620.364C456.538 623.429 460.204 631.214 469.839 632.886C465.57 630.494 459.503 621.838 457.857 619.41C458.421 619.233 459.013 619.072 459.639 618.932C460.288 620.578 462.69 625.564 469.49 630.272C469.789 628.331 464.312 620.589 462.74 618.415C463.194 618.361 463.663 618.315 464.148 618.276C464.95 619.646 467.578 624.06 470.625 628.355C470.141 626.832 467.835 620.625 466.908 618.134C467.687 618.111 468.417 618.044 469.113 617.943C469.613 620.698 470.828 628.644 473.336 633.119C472.811 629.925 474.908 627.716 474.996 624.464C475.068 621.808 472.051 618.651 470.941 617.58C472.294 617.238 473.502 616.77 474.639 616.258C474.838 617.157 475.443 619.487 476.745 621.676C477.97 620.083 476.993 617.337 476.125 615.555C478.011 614.632 479.793 613.696 481.861 613.179C481.407 615.725 480.101 621.228 476.745 626.033C472.2 632.538 475.347 633.175 475.347 633.175C475.347 633.175 474.996 629.225 479.978 626.15C484.61 623.285 485.009 617.811 484.131 612.809C485.496 612.708 487.009 612.802 488.749 613.184C488.165 614.868 485.967 621.699 486.272 629.052C492.21 626.271 491.688 617.64 491.141 613.849C492.177 614.195 493.288 614.63 494.489 615.171L494.576 615.213C494.041 617.126 493.079 620.607 492.039 624.524C494.848 622.727 496.387 619.221 497.175 616.677C497.685 617.027 498.162 617.399 498.602 617.786C496.705 620.899 493.5 626.389 492.128 630.037C495.162 626.957 498.845 622.711 500.887 620.32C501.859 621.699 502.549 623.187 503.022 624.716C498.965 627.318 490.675 633.1 485.484 639.913C490.627 638.204 499.001 632.118 503.779 628.444C503.843 629.04 503.884 629.633 503.904 630.215C499.786 632.386 493.689 636.054 493.002 639.1C496.467 636.475 500.732 634.328 503.862 632.929C503.567 637.546 502.267 641.133 502.267 641.133L451.7 640.861C450.893 640.138 449.181 639.463 447.74 638.985Z" fill="#CFAB16"/>
<path d="M45.7335 645.12C45.5421 643.477 45.3961 641.361 45.4436 638.85C48.9992 639.96 53.9474 641.041 59.2906 640.785C58.7953 640.623 51.0023 636.317 45.8198 633.439L45.8712 633.02C51.8434 635.639 62.7122 640.02 73.2444 642.269C62.0819 639.576 51.8227 628.471 47.8361 623.698C47.9291 623.378 48.0256 623.059 48.1253 622.733C48.9932 619.936 50.086 617.412 51.4605 615.153C54.1595 618.632 61.5037 627.709 69.8956 634.851C70.1673 627.818 61.6274 615.125 56.9863 608.773C58.5088 607.53 60.222 606.431 62.1514 605.476C64.4643 612 72.2688 628.575 92.7837 632.13C83.6922 627.046 70.7769 608.61 67.2696 603.443C68.4702 603.062 69.7344 602.727 71.0661 602.427C72.444 605.932 77.5583 616.542 92.0388 626.568C92.6759 622.434 81.0174 605.954 77.6679 601.327C78.6369 601.21 79.6348 601.113 80.664 601.027C82.3705 603.946 87.9653 613.343 94.4566 622.488C93.4227 619.245 88.5173 606.03 86.5397 600.722C88.1968 600.678 89.7554 600.535 91.2331 600.321C92.3004 606.184 94.8897 623.1 100.225 632.629C99.109 625.826 103.576 621.125 103.761 614.202C103.913 608.55 97.4909 601.825 95.1306 599.55C98.0069 598.819 100.578 597.822 103 596.73C103.424 598.649 104.711 603.611 107.481 608.269C110.091 604.88 108.014 599.033 106.165 595.235C110.18 593.271 113.973 591.279 118.377 590.176C117.409 595.6 114.627 607.313 107.481 617.542C97.8061 631.392 104.506 632.749 104.506 632.749C104.506 632.749 103.761 624.342 114.369 617.786C124.23 611.695 125.081 600.042 123.205 589.394C126.114 589.175 129.335 589.377 133.044 590.191C131.794 593.772 127.118 608.313 127.764 623.972C140.409 618.05 139.294 599.672 138.131 591.605C140.341 592.341 142.705 593.266 145.258 594.419L145.444 594.508C144.308 598.582 142.258 605.995 140.044 614.328C146.027 610.499 149.304 603.038 150.976 597.626C152.064 598.373 153.078 599.158 154.019 599.982C149.981 606.616 143.155 618.301 140.231 626.072C146.693 619.507 154.533 610.475 158.881 605.38C160.951 608.319 162.417 611.488 163.424 614.741C154.792 620.275 137.14 632.586 126.089 647.095C137.038 643.453 154.869 630.498 165.037 622.679C165.174 623.948 165.261 625.204 165.304 626.449C156.536 631.066 143.556 638.879 142.093 645.36C149.474 639.775 158.55 635.204 165.211 632.219C164.584 642.051 161.816 649.689 161.816 649.689L54.1643 649.113C52.4444 647.575 48.8018 646.134 45.7335 645.12Z" fill="#CFAB16"/>
<path d="M56.6139 519.854C56.4988 518.882 56.4138 517.628 56.4412 516.145C58.5466 516.799 61.4758 517.442 64.6397 517.288C64.3459 517.193 59.7331 514.644 56.6641 512.939L56.6954 512.693C60.231 514.243 66.6654 516.837 72.9027 518.168C66.2921 516.573 60.2183 509.998 57.8572 507.169C57.9128 506.981 57.9704 506.792 58.0299 506.599C58.5431 504.944 59.1911 503.452 60.0035 502.114C61.6029 504.173 65.9509 509.546 70.9185 513.775C71.0804 509.612 66.0237 502.097 63.2752 498.333C64.1773 497.599 65.1919 496.948 66.3343 496.385C67.7021 500.248 72.3252 510.06 84.4714 512.163C79.0882 509.152 71.441 498.238 69.3651 495.179C70.0766 494.956 70.8234 494.755 71.6123 494.577C72.4268 496.654 75.4564 502.934 84.0298 508.871C84.4086 506.426 77.5042 496.664 75.5213 493.926C76.0949 493.858 76.6858 493.798 77.2953 493.748C78.3066 495.477 81.6179 501.041 85.4618 506.457C84.8502 504.534 81.9445 496.71 80.7747 493.57C81.7552 493.543 82.6786 493.457 83.554 493.332C84.185 496.799 85.7169 506.818 88.8783 512.46C88.2158 508.432 90.8612 505.65 90.9715 501.548C91.0606 498.201 87.2581 494.223 85.8602 492.873C87.5639 492.441 89.0858 491.852 90.5199 491.206C90.7716 492.34 91.5324 495.276 93.1747 498.036C94.7179 496.03 93.4892 492.568 92.3943 490.318C94.7714 489.155 97.0167 487.978 99.6252 487.324C99.0518 490.536 97.4054 497.471 93.1747 503.527C87.4454 511.725 91.412 512.532 91.412 512.532C91.412 512.532 90.9715 507.551 97.2502 503.673C103.09 500.065 103.594 493.166 102.484 486.861C104.205 486.731 106.113 486.849 108.309 487.334C107.569 489.453 104.8 498.06 105.184 507.334C112.669 503.829 112.01 492.946 111.321 488.172C112.628 488.603 114.03 489.152 115.541 489.835L115.652 489.888C114.979 492.3 113.766 496.691 112.455 501.624C115.996 499.359 117.936 494.939 118.928 491.735C119.572 492.177 120.171 492.64 120.728 493.128C118.337 497.055 114.295 503.978 112.565 508.578C116.39 504.689 121.033 499.343 123.606 496.326C124.833 498.065 125.702 499.943 126.298 501.867C121.186 505.148 110.735 512.434 104.191 521.024C110.673 518.871 121.232 511.199 127.252 506.568C127.333 507.318 127.384 508.065 127.408 508.8C122.219 511.533 114.533 516.159 113.666 519.998C118.037 516.691 123.409 513.984 127.355 512.218C126.985 518.038 125.345 522.561 125.345 522.561L61.6043 522.22C60.587 521.308 58.4294 520.457 56.6139 519.854Z" fill="#405521"/>
<path d="M123.7 545.602C123.615 544.862 123.548 543.906 123.57 542.777C125.174 543.277 127.404 543.765 129.813 543.649C129.59 543.575 126.078 541.632 123.74 540.337L123.764 540.145C126.455 541.325 131.357 543.304 136.106 544.317C131.072 543.102 126.447 538.094 124.65 535.946L124.78 535.506C125.172 534.247 125.664 533.107 126.284 532.093C127.502 533.659 130.812 537.753 134.596 540.971C134.718 537.801 130.867 532.078 128.775 529.213C129.462 528.653 130.235 528.16 131.105 527.726C132.147 530.669 135.667 538.141 144.917 539.744C140.817 537.452 134.992 529.139 133.413 526.811C133.954 526.638 134.523 526.486 135.122 526.352C135.744 527.933 138.05 532.717 144.579 537.238C144.867 535.376 139.609 527.94 138.102 525.854C138.538 525.804 138.987 525.759 139.452 525.723C140.221 527.036 142.743 531.274 145.671 535.398C145.205 533.936 142.993 527.978 142.1 525.585C142.847 525.566 143.551 525.499 144.216 525.405C144.697 528.045 145.866 535.675 148.273 539.97C147.768 536.904 149.782 534.784 149.866 531.663C149.935 529.114 147.038 526.083 145.974 525.055C147.271 524.726 148.429 524.277 149.522 523.784C149.712 524.649 150.295 526.887 151.543 528.985C152.72 527.459 151.783 524.82 150.949 523.109C152.76 522.225 154.47 521.326 156.457 520.827C156.02 523.273 154.766 528.554 151.543 533.167C147.18 539.412 150.202 540.023 150.202 540.023C150.202 540.023 149.866 536.232 154.648 533.277C159.095 530.531 159.479 525.278 158.633 520.476C159.945 520.376 161.396 520.469 163.068 520.836C162.506 522.451 160.397 529.008 160.689 536.069C166.39 533.397 165.886 525.11 165.364 521.475C166.359 521.805 167.425 522.222 168.576 522.742L168.662 522.782C168.148 524.62 167.224 527.962 166.227 531.718C168.922 529.993 170.402 526.63 171.156 524.188C171.646 524.522 172.102 524.88 172.527 525.249C170.706 528.24 167.629 533.512 166.31 537.015C169.224 534.056 172.758 529.982 174.72 527.683C175.653 529.009 176.315 530.438 176.767 531.903C172.875 534.402 164.917 539.95 159.933 546.493C164.87 544.851 172.909 539.011 177.495 535.483C177.557 536.057 177.594 536.623 177.615 537.185C173.661 539.266 167.809 542.789 167.151 545.711C170.478 543.193 174.569 541.128 177.574 539.785C177.291 544.219 176.042 547.661 176.042 547.661L127.502 547.402C126.728 546.708 125.083 546.061 123.7 545.602Z" fill="#405521"/>
<path d="M557.944 601.125C557.846 600.297 557.773 599.235 557.797 597.973C559.583 598.531 562.073 599.073 564.761 598.946C564.511 598.864 560.592 596.696 557.987 595.252L558.012 595.04C561.014 596.357 566.481 598.56 571.776 599.693C566.162 598.334 561.005 592.751 559.001 590.351C559.045 590.191 559.095 590.03 559.145 589.867C559.583 588.461 560.13 587.193 560.822 586.057C562.181 587.805 565.873 592.37 570.092 595.961C570.229 592.424 565.933 586.042 563.601 582.848C564.367 582.223 565.228 581.67 566.198 581.19C567.361 584.469 571.285 592.806 581.603 594.592C577.031 592.035 570.536 582.765 568.771 580.169C569.376 579.979 570.012 579.806 570.68 579.655C571.374 581.42 573.945 586.753 581.228 591.795C581.547 589.717 575.684 581.428 574.002 579.102C574.488 579.045 574.99 578.995 575.508 578.953C576.366 580.421 579.179 585.144 582.443 589.744C581.924 588.113 579.457 581.468 578.463 578.8C579.296 578.776 580.078 578.706 580.822 578.596C581.36 581.545 582.659 590.051 585.345 594.844C584.783 591.421 587.031 589.059 587.121 585.578C587.199 582.734 583.969 579.353 582.782 578.211C584.228 577.844 585.521 577.341 586.739 576.791C586.954 577.757 587.599 580.253 588.994 582.595C590.305 580.889 589.261 577.95 588.331 576.04C590.351 575.052 592.258 574.051 594.471 573.498C593.986 576.225 592.587 582.11 588.994 587.257C584.127 594.221 587.495 594.904 587.495 594.904C587.495 594.904 587.121 590.674 592.455 587.38C597.414 584.317 597.843 578.458 596.899 573.102C598.362 572.992 599.982 573.093 601.846 573.503C601.218 575.305 598.867 582.617 599.193 590.489C605.55 587.512 604.99 578.271 604.406 574.214C605.516 574.582 606.705 575.05 607.988 575.631L608.084 575.674C607.51 577.721 606.481 581.45 605.369 585.641C608.375 583.714 610.024 579.963 610.865 577.243C611.413 577.616 611.922 578.012 612.393 578.428C610.364 581.762 606.931 587.64 605.46 591.546C608.711 588.245 612.653 583.703 614.839 581.139C615.879 582.617 616.618 584.212 617.123 585.848C612.782 588.631 603.907 594.824 598.35 602.119C603.854 600.287 612.821 593.772 617.935 589.842C618.005 590.477 618.05 591.111 618.069 591.737C613.659 594.058 607.133 597.985 606.398 601.243C610.109 598.439 614.671 596.138 618.021 594.639C617.707 599.583 616.316 603.424 616.316 603.424L562.181 603.131C561.317 602.36 559.486 601.635 557.944 601.125Z" fill="#405521"/>
<path d="M335.329 657.542C335.156 656.161 335.026 654.378 335.067 652.262C338.243 653.196 342.663 654.107 347.434 653.893C346.992 653.756 340.033 650.126 335.403 647.702L335.45 647.349C340.784 649.555 350.491 653.247 359.898 655.142C349.929 652.872 340.765 643.516 337.203 639.494C337.287 639.223 337.374 638.954 337.463 638.682C338.238 636.326 339.214 634.198 340.443 632.295C342.853 635.228 349.411 642.872 356.907 648.892C357.15 642.965 349.521 632.274 345.377 626.917C346.737 625.87 348.267 624.947 349.99 624.14C352.053 629.639 359.028 643.602 377.35 646.6C369.23 642.314 357.693 626.782 354.561 622.428C355.635 622.11 356.763 621.822 357.952 621.57C359.184 624.529 363.751 633.465 376.684 641.909C377.254 638.431 366.84 624.543 363.847 620.642C364.715 620.546 365.606 620.46 366.526 620.391C368.049 622.852 373.045 630.768 378.844 638.474C377.921 635.742 373.538 624.609 371.774 620.136C373.254 620.098 374.645 619.979 375.964 619.795C376.919 624.734 379.23 638.988 383.996 647.02C383 641.287 386.987 637.325 387.153 631.493C387.29 626.727 381.555 621.065 379.446 619.146C382.015 618.533 384.311 617.69 386.473 616.771C386.852 618.39 388.001 622.572 390.477 626.494C392.807 623.636 390.953 618.711 389.302 615.511C392.887 613.857 396.273 612.178 400.21 611.253C399.344 615.819 396.86 625.687 390.477 634.306C381.837 645.976 387.818 647.124 387.818 647.124C387.818 647.124 387.153 640.035 396.627 634.513C405.435 629.381 406.195 619.562 404.52 610.59C407.119 610.405 409.997 610.575 413.307 611.262C412.19 614.279 408.017 626.533 408.592 639.727C419.886 634.736 418.89 619.25 417.852 612.452C419.824 613.073 421.936 613.852 424.215 614.827L424.385 614.897C423.369 618.329 421.537 624.577 419.562 631.599C424.902 628.372 427.828 622.088 429.325 617.525C430.297 618.154 431.201 618.819 432.041 619.513C428.435 625.099 422.336 634.949 419.725 641.495C425.498 635.963 432.502 628.353 436.384 624.059C438.234 626.533 439.543 629.208 440.441 631.947C432.73 636.612 416.966 646.985 407.095 659.209C416.876 656.141 432.8 645.226 441.882 638.639C442.005 639.704 442.082 640.767 442.12 641.813C434.289 645.702 422.697 652.283 421.39 657.75C427.982 653.042 436.087 649.189 442.037 646.679C441.477 654.957 439.007 661.395 439.007 661.395L342.855 660.907C341.322 659.612 338.067 658.401 335.329 657.542Z" fill="#405521"/>
<path d="M104.506 669.761C104.739 666.787 104.913 662.961 104.858 658.421C100.585 660.431 94.6394 662.382 88.2222 661.923C88.8145 661.627 98.1782 653.844 104.405 648.642C104.384 648.389 104.364 648.133 104.342 647.876C97.1689 652.617 84.1092 660.537 71.4548 664.608C84.8673 659.728 97.1924 639.653 101.983 631.022C101.871 630.446 101.757 629.866 101.635 629.283C100.591 624.224 99.2796 619.662 97.6281 615.579C94.3843 621.868 85.562 638.279 75.4789 651.19C75.1517 638.471 85.4134 615.526 90.9887 604.037C89.159 601.791 87.1006 599.806 84.7823 598.079C82.0057 609.874 72.6259 639.843 47.9806 646.273C58.9003 637.076 74.4195 603.744 78.6336 594.402C77.1914 593.719 75.673 593.105 74.0715 592.561C72.4173 598.908 66.2711 618.084 48.8748 636.213C48.1084 628.743 62.1185 598.941 66.1406 590.572C64.9754 590.366 63.7755 590.189 62.5401 590.037C60.4891 595.314 53.7694 612.305 45.9676 628.836C47.2104 622.978 53.1041 599.079 55.4792 589.484C53.4889 589.398 51.6166 589.15 49.8417 588.761C48.5595 599.357 45.4509 629.944 39.0372 647.167C40.3797 634.873 35.0131 626.378 34.791 613.857C34.6075 603.635 42.323 591.476 45.1612 587.358C41.704 586.042 38.6156 584.236 35.7045 582.264C35.1952 585.74 33.6512 594.707 30.3185 603.128C27.1832 597 29.6781 586.427 31.9012 579.562C27.0782 576.014 22.5221 572.408 17.2307 570.416C18.391 580.225 21.7311 601.399 30.3185 619.893C41.9443 644.931 33.8962 647.393 33.8962 647.393C33.8962 647.393 34.791 632.19 22.0477 620.34C10.1978 609.324 9.17658 588.257 11.4272 569.001C7.93382 568.601 4.06113 568.968 -0.390629 570.443C1.11116 576.921 6.72653 603.206 5.95096 631.521C-9.2431 620.815 -7.9032 587.584 -6.50454 572.999C-9.15881 574.325 -12.0015 576.001 -15.0639 578.089L-15.2928 578.247C-13.927 585.608 -11.4629 599.014 -8.80469 614.08C-15.9895 607.162 -19.9278 593.671 -21.9388 583.881C-23.2465 585.235 -24.4637 586.659 -25.5927 588.147C-20.7437 600.136 -12.5396 621.27 -9.02894 635.319C-16.7918 623.448 -26.2112 607.121 -31.4344 597.907C-33.922 603.212 -35.6847 608.949 -36.8939 614.829C-26.5209 624.839 -5.31335 647.099 7.9626 673.326C-5.19223 666.749 -26.6121 643.325 -38.8306 629.184C-38.9966 631.476 -39.1003 633.753 -39.1519 636.002C-28.6177 644.342 -13.0228 658.471 -11.2642 670.196C-20.1326 660.093 -31.0362 651.829 -39.0407 646.441C-38.2899 664.208 -34.9612 678.019 -34.9612 678.019L94.3824 676.977C96.4449 674.195 100.821 671.596 104.506 669.761Z" fill="#405521"/>
<path d="M36.4833 690.333C36.4833 690.333 33.386 660.803 61.0102 660.092C88.6329 659.376 116.494 688.904 116.494 688.904L36.4833 690.333Z" fill="#24394B"/>
<path d="M181.118 498.158C181.118 498.158 716.662 484.932 940.358 512.484C737.599 504.767 181.118 498.158 181.118 498.158Z" fill="white"/>
<path d="M1470.39 618.271C1470.39 618.271 1164.05 609.454 983.334 623.78C1241.19 637.003 1457.17 639.208 1457.17 639.208C1457.17 639.208 1234.5 643.987 1172.8 649.499C1382.16 642.889 1467.09 650.225 1467.09 650.225L1474.8 619.372" fill="white"/>
<path d="M1493.66 807.177C1493.66 807.177 932.612 853.012 930.778 876.848C928.945 900.684 1484.49 853.012 1484.49 853.012L1493.66 807.177Z" fill="#7EAEAA"/>
<path d="M620.919 1014.36C620.919 1014.36 793.266 1023.52 989.448 941.016C925.275 997.858 677.757 1074.86 620.919 1014.36Z" fill="white"/>
<path d="M985.782 713.667C985.782 713.667 1295.64 691.664 1273.64 779.671C1308.48 759.504 1295.64 680.664 985.782 713.667Z" fill="white"/>
<path d="M1297.59 981.528C1286.52 975.732 1262.98 960.222 1258.63 931.489C1258.63 931.489 1255.84 932.054 1251.14 932.604C1255.84 932.054 1258.63 931.489 1258.63 931.489C1262.98 960.222 1286.52 975.732 1297.59 981.528Z" fill="#56534A"/>
<path d="M1342.9 932.063C1342.62 931.172 1342.38 930.259 1342.15 929.318C1342.38 930.257 1342.63 931.172 1342.9 932.063ZM1342.15 929.316C1342.14 929.282 1342.14 929.248 1342.13 929.214C1342.14 929.248 1342.14 929.282 1342.15 929.316ZM1342.13 929.205C1342.12 929.174 1342.11 929.138 1342.1 929.106C1342.11 929.14 1342.12 929.171 1342.13 929.205ZM1342.1 929.095C1342.09 929.063 1342.09 929.034 1342.08 929.001C1342.09 929.03 1342.09 929.066 1342.1 929.095ZM1342.08 928.984C1342.07 928.955 1342.06 928.922 1342.05 928.891C1342.06 928.922 1342.07 928.955 1342.08 928.984ZM1342.05 928.874C1342.04 928.845 1342.04 928.816 1342.03 928.785C1342.04 928.814 1342.04 928.845 1342.05 928.874ZM1342.02 928.763C1342.02 928.736 1342.01 928.705 1342 928.677C1342.01 928.706 1342.02 928.734 1342.02 928.763ZM1342 928.652C1341.99 928.624 1341.99 928.598 1341.98 928.571C1341.99 928.598 1341.99 928.624 1342 928.652ZM1341.97 928.539C1341.97 928.515 1341.96 928.487 1341.96 928.461C1341.96 928.487 1341.97 928.515 1341.97 928.539ZM1341.95 928.427C1341.94 928.401 1341.94 928.381 1341.93 928.355C1341.94 928.381 1341.94 928.401 1341.95 928.427ZM1341.92 928.314C1341.92 928.294 1341.91 928.266 1341.91 928.246C1341.91 928.268 1341.92 928.292 1341.92 928.314ZM1341.9 928.201C1341.9 928.182 1341.89 928.158 1341.89 928.139C1341.89 928.16 1341.9 928.18 1341.9 928.201ZM1341.87 928.085C1341.87 928.066 1341.87 928.049 1341.86 928.031C1341.87 928.049 1341.87 928.067 1341.87 928.085ZM1341.85 927.971C1341.85 927.954 1341.84 927.939 1341.84 927.923C1341.84 927.939 1341.85 927.954 1341.85 927.971ZM1341.83 927.857C1341.83 927.841 1341.82 927.828 1341.82 927.812C1341.82 927.828 1341.83 927.841 1341.83 927.857ZM1341.8 927.738C1341.8 927.73 1341.8 927.716 1341.8 927.706C1341.8 927.716 1341.8 927.73 1341.8 927.738ZM1341.78 927.624C1341.78 927.615 1341.78 927.605 1341.77 927.595C1341.78 927.603 1341.78 927.615 1341.78 927.624ZM1341.75 927.505C1341.75 927.5 1341.75 927.492 1341.75 927.487C1341.75 927.494 1341.75 927.499 1341.75 927.505ZM1341.73 927.389C1341.73 927.386 1341.73 927.38 1341.73 927.375C1341.73 927.38 1341.73 927.386 1341.73 927.389ZM1341.71 927.269V927.267V927.269Z" fill="#56534A"/>
<path d="M1073.49 883.497C1076.44 882.625 1079.29 882.138 1082.01 882.14C1079.29 882.14 1076.44 882.625 1073.49 883.497ZM1082.02 882.14C1082.02 882.14 1082.01 882.14 1082.01 882.14C1082.01 882.14 1082.02 882.14 1082.02 882.14Z" fill="#665E54"/>
<path d="M1030.48 911.426C1030.57 911.354 1030.66 911.28 1030.74 911.208C1030.66 911.28 1030.57 911.354 1030.48 911.426ZM1030.89 911.086C1044.03 900.045 1059.75 887.562 1073.49 883.497C1059.76 887.564 1044.03 900.046 1030.89 911.086Z" fill="#341A15"/>
<path d="M1170.9 943.459C1173.05 936.387 1174.32 927.903 1174.94 917.156C1174.99 917.199 1175.05 917.24 1175.1 917.281C1175.05 917.24 1174.99 917.199 1174.94 917.156C1174.32 927.903 1173.05 936.387 1170.9 943.459ZM1233.42 933.632C1233.38 933.632 1233.34 933.63 1233.31 933.63C1233.34 933.63 1233.38 933.632 1233.42 933.632ZM1233.43 933.632C1240.53 933.63 1246.69 933.125 1251.14 932.604C1246.69 933.125 1240.54 933.63 1233.43 933.632ZM1175.72 917.74C1175.64 917.68 1175.56 917.619 1175.47 917.557C1175.56 917.619 1175.64 917.68 1175.72 917.74ZM1175.46 917.545C1175.38 917.487 1175.3 917.428 1175.22 917.37C1175.3 917.428 1175.38 917.487 1175.46 917.545Z" fill="#341A15"/>
</svg>
