<svg width="26" height="26" viewBox="0 0 26 26" fill="none" xmlns="http://www.w3.org/2000/svg">
<path d="M23.8327 15.1667L20.6488 12.8743C18.9943 11.6831 16.7333 11.8062 15.2179 13.17L10.7808 17.1635C9.26544 18.5273 7.0044 18.6504 5.34994 17.4592L2.16602 15.1667M6.49935 23.8334H19.4993C21.8926 23.8334 23.8327 21.8933 23.8327 19.5001V6.50008C23.8327 4.10685 21.8926 2.16675 19.4993 2.16675H6.49935C4.10612 2.16675 2.16602 4.10685 2.16602 6.50008V19.5001C2.16602 21.8933 4.10611 23.8334 6.49935 23.8334ZM11.916 9.20841C11.916 10.7042 10.7035 11.9167 9.20768 11.9167C7.71191 11.9167 6.49935 10.7042 6.49935 9.20841C6.49935 7.71264 7.71191 6.50008 9.20768 6.50008C10.7035 6.50008 11.916 7.71264 11.916 9.20841Z" stroke="white" stroke-width="2" stroke-linecap="round"/>
</svg>
