<svg width="27" height="27" viewBox="0 0 27 27" fill="none" xmlns="http://www.w3.org/2000/svg">
<path d="M17.25 7.875C17.25 9.94607 15.5711 11.625 13.5 11.625V13.125C16.3995 13.125 18.75 10.7745 18.75 7.875H17.25ZM13.5 11.625C11.4289 11.625 9.75 9.94607 9.75 7.875H8.25C8.25 10.7745 10.6005 13.125 13.5 13.125V11.625ZM9.75 7.875C9.75 5.80393 11.4289 4.125 13.5 4.125V2.625C10.6005 2.625 8.25 4.9755 8.25 7.875H9.75ZM13.5 4.125C15.5711 4.125 17.25 5.80393 17.25 7.875H18.75C18.75 4.9755 16.3995 2.625 13.5 2.625V4.125ZM20.625 19.6875C20.625 20.3377 20.0784 21.1282 18.7331 21.8009C17.4326 22.4512 15.5834 22.875 13.5 22.875V24.375C15.7658 24.375 17.8542 23.9174 19.4039 23.1426C20.9087 22.3901 22.125 21.2119 22.125 19.6875H20.625ZM13.5 22.875C11.4166 22.875 9.56745 22.4512 8.26694 21.8009C6.92158 21.1282 6.375 20.3377 6.375 19.6875H4.875C4.875 21.2119 6.0913 22.3901 7.59612 23.1426C9.14581 23.9174 11.2342 24.375 13.5 24.375V22.875ZM6.375 19.6875C6.375 19.0373 6.92158 18.2468 8.26694 17.5741C9.56745 16.9238 11.4166 16.5 13.5 16.5V15C11.2342 15 9.14581 15.4576 7.59612 16.2324C6.0913 16.9849 4.875 18.1631 4.875 19.6875H6.375ZM13.5 16.5C15.5834 16.5 17.4326 16.9238 18.7331 17.5741C20.0784 18.2468 20.625 19.0373 20.625 19.6875H22.125C22.125 18.1631 20.9087 16.9849 19.4039 16.2324C17.8542 15.4576 15.7658 15 13.5 15V16.5Z" fill="#A1A1A1"/>
</svg>
