<svg width="1440" height="1230" viewBox="0 0 1440 1230" fill="none" xmlns="http://www.w3.org/2000/svg">
<path d="M981.427 514.738L982.336 515.712C986.096 512.632 988.843 511.688 991.127 511.685C992.612 511.685 994.001 512.087 995.469 512.758C997.671 513.753 999.972 515.37 1002.71 516.781C1005.45 518.19 1008.69 519.374 1012.69 519.371H1012.86H1012.88H1012.86C1015.26 519.35 1017.36 518.565 1019.23 517.58C1021.11 516.592 1022.8 515.394 1024.43 514.412C1028.07 512.213 1032.74 510.736 1037.07 510.742C1039.86 510.744 1042.49 511.338 1044.69 512.673C1046.84 513.956 1048.65 516.004 1050.69 517.955C1052.72 519.888 1055.09 521.776 1058.43 522.298L1058.65 521.021L1057.86 519.965C1053.93 522.564 1052.32 525.996 1051.14 529.09C1049.95 532.219 1049.07 535.004 1046.93 536.981C1045.15 538.658 1042.01 539.747 1038.48 540.748C1034.95 541.765 1031.08 542.725 1027.82 544.574C1024.34 546.571 1020.17 548.368 1016.5 548.352C1015.18 548.352 1013.92 548.133 1012.72 547.63C1011.2 546.995 1009.87 545.882 1008.43 544.664C1006.99 543.461 1005.42 542.145 1003.28 541.371C1001.9 540.873 1000.49 540.676 999.087 540.676C995.455 540.687 991.928 541.954 988.782 542.947C985.339 544.044 981.771 544.902 978.288 544.9C977.621 544.9 976.956 544.87 976.298 544.804C972.209 544.413 968.236 542.318 966.986 539.437C966.765 538.942 966.649 538.368 966.649 537.7C966.643 536.267 967.216 534.424 968.221 532.452C971.218 526.508 977.938 519.538 981.369 516.535C981.698 516.245 982.019 515.972 982.336 515.712L981.427 514.738L980.522 513.764C980.181 514.046 979.837 514.339 979.485 514.648C977.064 516.778 973.243 520.6 969.969 524.831C968.335 526.945 966.841 529.161 965.734 531.338C964.633 533.518 963.902 535.657 963.893 537.7C963.893 538.65 964.059 539.58 964.449 540.444C966.363 544.582 971.224 546.88 976.007 547.375C976.77 547.452 977.53 547.487 978.288 547.487C982.252 547.485 986.093 546.53 989.664 545.398C992.854 544.372 996.163 543.253 999.087 543.264C1000.21 543.264 1001.28 543.42 1002.3 543.786C1003.85 544.342 1005.17 545.392 1006.6 546.596C1008.02 547.785 1009.54 549.126 1011.6 549.993C1013.19 550.66 1014.85 550.939 1016.5 550.939C1021.09 550.923 1025.57 548.869 1029.25 546.787C1032.02 545.198 1035.7 544.246 1039.28 543.22C1042.86 542.178 1046.38 541.095 1048.86 538.819C1051.65 536.21 1052.57 532.941 1053.73 529.971C1054.89 526.967 1056.19 524.251 1059.45 522.077L1062.18 520.258L1058.88 519.743C1056.44 519.369 1054.59 517.979 1052.65 516.138C1050.72 514.317 1048.82 512.093 1046.18 510.496C1043.44 508.843 1040.27 508.154 1037.07 508.157C1032.09 508.162 1027 509.793 1022.94 512.238C1021.2 513.291 1019.55 514.453 1017.89 515.323C1016.23 516.196 1014.59 516.77 1012.84 516.784H1012.81H1012.84H1012.69C1008.14 516.781 1004.82 515.042 1001.57 513.138C999.946 512.189 998.368 511.204 996.675 510.43C994.986 509.659 993.16 509.098 991.127 509.098C987.961 509.098 984.541 510.457 980.522 513.764L981.427 514.738Z" fill="#211D1D"/>
<path d="M1051.23 555.595L1050.96 556.861C1052.07 557.069 1053.19 557.6 1053.95 558.267C1054.73 558.94 1055.12 559.684 1055.12 560.37L1055.11 560.587C1055.05 561.101 1054.79 561.645 1054.34 562.25C1053.9 562.851 1053.29 563.48 1052.67 564.148C1048.18 568.967 1045.35 575.223 1045.34 581.369C1045.34 585.519 1046.66 589.635 1049.68 593.062C1050.57 594.08 1050.83 594.832 1050.83 595.354C1050.82 595.792 1050.67 596.178 1050.27 596.659C1049.57 597.493 1048.01 598.407 1046 599.198C1042.97 600.404 1038.96 601.416 1035.24 602.409C1031.5 603.426 1028.1 604.359 1025.93 605.748C1024.89 606.438 1024.01 607.004 1023.17 607.133L1022.61 607.174C1021.57 607.193 1020.24 606.706 1018.65 606.394C1017.65 606.208 1016.66 606.151 1015.69 606.151C1013.7 606.153 1011.79 606.389 1010.06 606.383C1008.75 606.386 1007.56 606.254 1006.49 605.863C1004.86 605.256 1003.88 604.296 1003.2 603.005C1002.53 601.717 1002.23 600.076 1002.24 598.322C1002.23 596.525 1002.54 594.624 1002.98 592.906C1003.28 591.681 1003.62 590.666 1004.28 590.043C1004.74 589.594 1005.28 589.312 1005.98 589.121C1006.68 588.932 1007.53 588.858 1008.48 588.858C1010.26 588.856 1012.33 589.132 1014.38 589.135L1014.79 589.132C1019.56 589.047 1023.14 586.645 1025.84 583.41C1029.91 578.544 1032.5 571.673 1035.71 566.115C1037.31 563.338 1039.04 560.912 1041.06 559.235C1043.08 557.561 1045.31 556.599 1048.22 556.588C1049.06 556.588 1049.98 556.675 1050.96 556.861L1051.23 555.595L1051.51 554.326C1050.36 554.107 1049.26 554.003 1048.22 554.003C1043.39 553.986 1039.73 556.314 1036.99 559.514C1032.86 564.323 1030.25 571.186 1027.06 576.779C1025.48 579.575 1023.76 582.037 1021.77 583.754C1019.77 585.472 1017.58 586.476 1014.73 586.544L1014.38 586.547C1012.61 586.552 1010.53 586.276 1008.48 586.271C1007.39 586.273 1006.29 586.35 1005.23 586.635C1004.17 586.916 1003.13 587.422 1002.29 588.246C1001 589.523 1000.62 591.071 1000.3 592.305C999.825 594.173 999.481 596.254 999.481 598.322C999.484 600.338 999.804 602.351 1000.72 604.137C1001.63 605.918 1003.22 607.447 1005.49 608.27C1007.01 608.831 1008.57 608.971 1010.06 608.971C1012.03 608.968 1013.94 608.735 1015.69 608.738C1016.54 608.738 1017.35 608.79 1018.11 608.932C1019.35 609.146 1020.82 609.742 1022.61 609.761C1022.95 609.761 1023.29 609.737 1023.64 609.679C1025.33 609.389 1026.51 608.503 1027.5 607.874C1028.62 607.133 1030.84 606.339 1033.44 605.601C1037.36 604.474 1042.18 603.38 1046.1 601.949C1048.07 601.227 1049.83 600.428 1051.19 599.408C1052.54 598.41 1053.58 597.042 1053.58 595.354C1053.58 594.017 1052.94 592.71 1051.8 591.416C1049.23 588.484 1048.1 585.015 1048.09 581.369C1048.08 575.981 1050.64 570.234 1054.74 565.852C1055.33 565.217 1056.01 564.531 1056.61 563.727C1057.2 562.928 1057.72 561.982 1057.85 560.855L1057.87 560.37C1057.87 558.754 1056.99 557.37 1055.82 556.361C1054.63 555.343 1053.11 554.637 1051.51 554.326L1051.23 555.595Z" fill="#211D1D"/>
<path d="M1128.28 507.241L1128.9 508.398C1130.57 507.61 1132.76 507.107 1134.72 507.11C1135.95 507.11 1137.07 507.304 1137.94 507.676C1138.81 508.056 1139.41 508.565 1139.79 509.301C1140 509.722 1140.09 510.124 1140.09 510.545C1140.1 511.431 1139.65 512.473 1138.81 513.505C1137.99 514.533 1136.82 515.521 1135.62 516.295C1134.07 517.301 1132.27 518.316 1130.66 519.547C1129.06 520.775 1127.59 522.263 1126.95 524.271C1126.63 525.275 1126.57 526.21 1126.43 526.987C1126.3 527.775 1126.13 528.365 1125.78 528.817C1124.24 530.816 1122.22 532.085 1119.79 532.895C1117.36 533.699 1114.53 534.008 1111.56 534.005C1107.76 534.008 1103.74 533.51 1100.03 533.002C1096.31 532.496 1092.91 531.97 1090.21 531.968C1089.17 531.968 1088.23 532.042 1087.36 532.263C1086.51 532.485 1085.69 532.873 1085.09 533.565L1087.24 535.184C1088.79 533.376 1090.34 531.566 1091.88 529.752L1092.56 528.959L1091.9 528.152C1090.81 526.823 1090.35 525.384 1090.35 523.855C1090.31 520.264 1093.13 516.161 1096.72 514C1099.25 512.468 1100.79 512.099 1102.17 512.091C1103.34 512.088 1104.52 512.391 1106.1 512.755C1107.66 513.114 1109.58 513.496 1112.08 513.494C1112.41 513.494 1112.74 513.488 1113.09 513.475C1116.48 513.346 1119.09 512.722 1121.51 511.798C1123.93 510.873 1126.13 509.689 1128.9 508.398L1128.28 507.241L1127.67 506.084C1124.83 507.411 1122.66 508.57 1120.47 509.402C1118.28 510.231 1116.07 510.767 1112.97 510.89C1112.67 510.901 1112.37 510.906 1112.08 510.906C1109.87 510.906 1108.25 510.583 1106.74 510.242C1105.25 509.905 1103.84 509.508 1102.17 509.503C1100.17 509.498 1097.98 510.135 1095.22 511.831C1090.96 514.451 1087.63 519.06 1087.59 523.855C1087.59 525.885 1088.24 527.95 1089.72 529.736L1090.81 528.945L1089.73 528.136C1088.19 529.946 1086.64 531.757 1085.09 533.565L1087.24 535.184C1087.35 535.059 1087.59 534.892 1088.09 534.758C1088.6 534.626 1089.32 534.553 1090.21 534.555C1092.54 534.55 1095.9 535.048 1099.63 535.562C1103.37 536.071 1107.51 536.593 1111.56 536.593C1114.73 536.593 1117.86 536.276 1120.71 535.335C1123.55 534.397 1126.13 532.802 1128.01 530.327C1128.76 529.347 1129 528.294 1129.15 527.383C1129.3 526.467 1129.38 525.652 1129.58 525.017C1129.99 523.74 1131 522.624 1132.4 521.552C1133.79 520.48 1135.54 519.492 1137.19 518.423C1138.59 517.515 1139.95 516.379 1141.01 515.064C1142.06 513.751 1142.84 512.23 1142.85 510.545C1142.85 509.757 1142.67 508.95 1142.28 508.185C1141.6 506.839 1140.42 505.887 1139.08 505.321C1137.74 504.752 1136.24 504.525 1134.72 504.525C1132.28 504.528 1129.76 505.107 1127.67 506.084L1128.28 507.241Z" fill="#211D1D"/>
<path d="M1085.86 570.34L1084.51 570.608L1084.51 570.633L1084.64 570.619H1084.51V570.633L1084.64 570.619H1084.51H1085.22L1084.83 570.097L1084.51 570.619H1085.22L1084.83 570.097L1085.1 570.455L1084.99 570.023L1084.83 570.097L1085.1 570.455L1084.99 570.023L1084.88 570.028C1084.64 570.034 1084.09 569.946 1083.41 569.744C1081.01 569.047 1077.03 567.102 1073.63 565.086C1071.93 564.077 1070.36 563.048 1069.18 562.156C1068.6 561.713 1068.1 561.303 1067.76 560.967C1067.41 560.638 1067.21 560.351 1067.2 560.324C1067.12 560.154 1067.02 559.741 1067.03 559.208C1067.02 557.791 1067.62 555.605 1068.64 553.937C1069.14 553.1 1069.74 552.389 1070.34 551.929C1070.96 551.467 1071.52 551.259 1072.1 551.256C1072.53 551.259 1073.02 551.371 1073.64 551.724C1074 551.937 1074.27 552.219 1074.53 552.64C1074.92 553.264 1075.22 554.178 1075.65 555.162C1076.09 556.131 1076.73 557.249 1077.99 557.996C1078.69 558.401 1079.37 558.592 1079.93 558.773C1080.5 558.945 1080.95 559.104 1081.22 559.282C1081.58 559.511 1081.83 559.826 1082.05 560.296C1082.27 560.761 1082.43 561.358 1082.57 561.99C1083.21 564.864 1083.86 567.734 1084.51 570.608L1085.86 570.34L1087.2 570.072C1086.56 567.2 1085.91 564.328 1085.27 561.453C1085.11 560.786 1084.93 560.026 1084.57 559.257C1084.22 558.494 1083.66 557.703 1082.76 557.137C1082.06 556.702 1081.37 556.5 1080.8 556.317C1080.22 556.139 1079.75 555.983 1079.46 555.805C1079.09 555.586 1078.82 555.299 1078.56 554.872C1078.17 554.243 1077.87 553.327 1077.44 552.345C1077 551.374 1076.36 550.261 1075.08 549.522C1074.12 548.959 1073.09 548.669 1072.1 548.669C1070.76 548.669 1069.56 549.189 1068.61 549.922C1067.17 551.035 1066.13 552.624 1065.41 554.29C1064.68 555.958 1064.28 557.695 1064.27 559.208C1064.28 559.979 1064.37 560.696 1064.69 561.371C1064.99 561.981 1065.42 562.435 1065.99 562.961C1067.93 564.741 1071.58 567.055 1075.28 569.022C1077.12 569.998 1078.97 570.876 1080.6 571.519C1082.26 572.159 1083.63 572.597 1084.88 572.616C1085.36 572.611 1085.88 572.556 1086.42 572.211C1086.97 571.872 1087.3 571.161 1087.27 570.619L1087.2 570.075L1085.86 570.34Z" fill="#211D1D"/>
<path d="M1232.46 545.247L1233.6 544.523C1233.16 543.932 1232.88 543.33 1232.91 543.155L1232.94 543.04C1232.94 542.966 1233.27 542.657 1233.84 542.356C1236.7 540.729 1239.93 539.55 1243.32 538.915L1243.81 538.85L1243.87 538.852L1243.88 538.77L1243.85 538.847L1243.87 538.852L1243.88 538.77L1243.85 538.847L1243.95 538.631L1243.74 538.754L1243.85 538.85L1243.95 538.631L1243.74 538.754L1243.84 538.694L1243.73 538.743L1243.74 538.754L1243.84 538.694L1243.73 538.743L1243.76 538.847C1243.82 539.079 1243.79 539.599 1243.81 540.209C1243.92 541.908 1245.05 543.207 1246.36 544.047C1247.7 544.903 1249.3 545.417 1250.87 545.63C1253.86 546.008 1256.68 545.726 1258.93 546.41C1259.67 546.612 1260.22 546.946 1260.37 547.189C1260.53 547.384 1260.62 547.884 1260.78 548.667C1261.44 551.301 1263.33 553.243 1264.91 555.01C1266.52 556.757 1267.89 558.527 1268.06 560.231L1268.07 560.543C1268.08 561.282 1267.77 562.105 1267.26 562.712C1266.74 563.322 1266.07 563.708 1265.26 563.782L1264.95 563.793C1264.28 563.793 1263.64 563.596 1262.94 563.218C1261.88 562.657 1260.77 561.675 1259.48 560.743C1258.2 559.821 1256.68 558.902 1254.72 558.768L1254.26 558.751C1252.97 558.757 1251.85 559.077 1250.89 559.288C1249.69 559.556 1248.47 559.739 1247.31 559.736C1246.52 559.736 1245.76 559.651 1245.04 559.46C1244.21 559.236 1243.41 558.798 1242.86 558.278C1242.31 557.753 1242.02 557.187 1242 556.651C1241.87 554.156 1240.3 552.108 1238.6 550.165C1236.88 548.229 1234.92 546.361 1233.6 544.523L1232.46 545.247L1231.32 545.97C1232.85 548.095 1234.88 549.999 1236.49 551.82C1238.11 553.637 1239.21 555.338 1239.25 556.757C1239.31 558.087 1239.99 559.238 1240.91 560.1C1241.83 560.97 1243.01 561.599 1244.28 561.944C1245.29 562.217 1246.31 562.324 1247.31 562.324C1248.77 562.324 1250.19 562.099 1251.53 561.807C1252.58 561.566 1253.49 561.334 1254.26 561.339L1254.53 561.347C1255.26 561.396 1255.95 561.645 1256.69 562.064C1257.79 562.682 1258.92 563.683 1260.2 564.599C1261.48 565.502 1263.01 566.377 1264.95 566.38L1265.51 566.355C1267.16 566.216 1268.52 565.39 1269.42 564.315C1270.33 563.237 1270.82 561.902 1270.83 560.543L1270.8 559.96C1270.46 557.222 1268.63 555.141 1267.01 553.336C1265.39 551.555 1263.87 549.84 1263.47 548.1C1263.33 547.594 1263.31 546.719 1262.67 545.773C1261.9 544.695 1260.75 544.238 1259.75 543.937C1256.74 543.078 1253.77 543.426 1251.25 543.067C1250.07 542.912 1248.8 542.488 1247.92 541.916C1247.03 541.328 1246.6 540.704 1246.56 540.064C1246.54 539.73 1246.59 539.17 1246.49 538.5C1246.44 538.163 1246.33 537.775 1246.08 537.384C1245.83 536.992 1245.39 536.634 1244.89 536.451C1244.5 536.303 1244.13 536.262 1243.81 536.262C1243.39 536.265 1243.05 536.328 1242.78 536.38C1239.09 537.072 1235.55 538.355 1232.4 540.143C1231.79 540.51 1230.93 540.967 1230.42 541.99C1230.23 542.375 1230.15 542.78 1230.16 543.155C1230.19 544.413 1230.85 545.28 1231.32 545.97L1232.46 545.247Z" fill="#211D1D"/>
<path d="M1101.3 202.376L1101.92 203.531C1104.1 202.497 1106.34 202.087 1108.71 202.084C1113.29 202.073 1118.34 203.703 1123.6 205.413C1128.86 207.106 1134.34 208.873 1139.96 208.881C1140.89 208.881 1141.83 208.832 1142.77 208.722C1144.03 208.572 1145.24 208.353 1146.25 208.358C1146.92 208.358 1147.48 208.446 1147.96 208.651C1148.84 209.007 1149.54 209.879 1150.28 210.965C1154 216.337 1157.72 221.707 1161.45 227.076C1162.72 228.895 1163.85 230.651 1164 232.325L1164.02 232.831C1164.05 234.891 1162.7 237.158 1161.2 239.415C1155.75 247.73 1150.28 256.042 1144.83 264.355L1146 265.036L1146.79 263.98C1141.22 260.296 1134.88 256.212 1127.25 256.144H1127.16C1123.81 256.152 1120.53 257.336 1118.01 259.169C1115.5 261.001 1113.68 263.545 1113.66 266.425C1113.65 267.435 1113.9 268.466 1114.4 269.453C1115.85 272.222 1118.62 273.8 1120.68 275.468C1124.21 278.253 1126.68 282.555 1126.66 286.264C1126.65 288.321 1125.97 290.176 1124.34 291.757C1122.01 294.008 1118.67 294.878 1114.79 294.88C1110.55 294.883 1105.79 293.814 1101.61 292.596C1093.44 290.244 1084.99 287.52 1080.45 281.986C1079.14 280.414 1078.11 278.545 1076.91 276.661C1075.72 274.782 1074.35 272.873 1072.29 271.346C1068.56 268.605 1063.81 267.916 1059.13 267.913C1056.62 267.913 1054.11 268.116 1051.74 268.343C1027.42 270.695 1003.2 273.545 978.984 276.393C971.604 277.26 963.905 278.053 956.431 278.05C945.823 278.053 935.722 276.456 927.546 271.363L926.786 272.443L927.977 273.088C931.391 267.487 939.06 263.696 946.706 263.712C947.795 263.712 948.885 263.789 949.962 263.945C955.316 264.691 960.547 267.386 966.69 267.763C967.13 267.788 967.567 267.799 968.001 267.799C971.493 267.796 974.845 267.068 978.041 266.379C985.695 264.721 994.66 263.529 1003.36 261.68C1012.06 259.822 1020.51 257.323 1027.16 252.905C1031.71 249.874 1034.66 246.313 1037.8 243.217C1040.95 240.109 1044.24 237.445 1049.61 235.801C1055.9 233.876 1062.5 234.447 1068.98 234.27C1072.22 234.171 1075.43 233.876 1078.54 232.888C1081.65 231.906 1084.62 230.211 1087.28 227.434C1091.15 223.392 1092.41 218.657 1093.99 214.401C1095.58 210.109 1097.36 206.337 1102.05 203.46L1101.3 202.376L1101.92 203.531L1101.3 202.376L1100.55 201.293C1095.12 204.595 1092.99 209.171 1091.38 213.555C1089.77 217.976 1088.57 222.245 1085.24 225.703C1082.88 228.156 1080.37 229.571 1077.66 230.438C1073.6 231.737 1069.01 231.731 1064.11 231.726C1059.21 231.731 1054 231.75 1048.76 233.34C1042.83 235.137 1039.06 238.211 1035.8 241.433C1032.54 244.666 1029.73 248.025 1025.57 250.793C1019.43 254.883 1011.3 257.339 1002.75 259.155C994.2 260.977 985.244 262.167 977.423 263.857C974.231 264.549 971.076 265.214 968.001 265.211C967.619 265.211 967.235 265.2 966.856 265.181C961.52 264.907 956.361 262.284 950.382 261.387C949.161 261.209 947.932 261.125 946.706 261.125C938.131 261.141 929.655 265.23 925.592 271.795L924.945 272.848L926.023 273.521C934.872 279.019 945.55 280.635 956.431 280.638C964.109 280.638 971.915 279.831 979.325 278.961C1003.54 276.111 1027.75 273.264 1052.02 270.917C1054.36 270.692 1056.78 270.501 1059.13 270.501C1063.55 270.495 1067.64 271.188 1070.59 273.378C1072.22 274.59 1073.41 276.19 1074.55 277.985C1075.69 279.776 1076.77 281.748 1078.27 283.573C1083.62 289.968 1092.62 292.673 1100.8 295.069C1105.1 296.316 1110.07 297.463 1114.79 297.468C1119.07 297.471 1123.27 296.494 1126.31 293.562C1128.47 291.491 1129.42 288.877 1129.41 286.264C1129.39 281.524 1126.51 276.732 1122.46 273.493C1120.17 271.707 1117.8 270.192 1116.88 268.335C1116.56 267.686 1116.41 267.057 1116.41 266.425C1116.4 264.661 1117.63 262.711 1119.7 261.212C1121.74 259.713 1124.52 258.726 1127.16 258.731H1127.23C1133.75 258.753 1139.67 262.399 1145.2 266.092L1146.4 266.888L1147.17 265.714C1152.63 257.399 1158.09 249.087 1163.55 240.774C1165.03 238.487 1166.76 235.894 1166.78 232.831C1166.78 232.582 1166.77 232.333 1166.74 232.081C1166.47 229.546 1165.01 227.497 1163.75 225.664C1160.03 220.295 1156.31 214.926 1152.59 209.554C1151.83 208.473 1150.89 207.067 1149.1 206.293C1148.15 205.889 1147.17 205.771 1146.25 205.771C1144.86 205.774 1143.56 206.028 1142.43 206.154C1141.61 206.25 1140.79 206.293 1139.96 206.293C1134.97 206.302 1129.75 204.669 1124.5 202.965C1119.24 201.274 1113.97 199.504 1108.71 199.496C1106 199.494 1103.28 199.983 1100.68 201.222L1100.61 201.252L1100.55 201.293L1101.3 202.376Z" fill="#211D1D"/>
<path d="M984.806 224.559C984.061 224.773 983.312 224.871 982.558 224.871C978.739 224.91 974.626 222.172 972.247 219.064C969.287 215.287 967.403 210.391 962.92 206.832C959.795 204.384 955.898 203.025 952.111 201.95C949.004 201.072 945.657 200.322 942.252 200.32C940.836 200.32 939.409 200.451 937.997 200.765C935.666 201.285 933.491 202.396 931.836 203.914C930.193 205.429 929.04 207.406 929.037 209.625C929.037 209.879 929.052 210.136 929.084 210.396C929.398 213.014 931.111 214.948 933.214 216.354C936.386 218.479 940.612 219.786 944.168 221.378C945.945 222.166 947.541 223.014 948.73 223.977C949.921 224.945 950.696 225.976 951.022 227.248C951.141 227.719 951.188 228.216 951.188 228.753C951.194 229.937 950.938 231.294 950.932 232.793L950.952 233.438C951.109 235.963 952.216 238.184 953.582 240.202C954.951 242.224 956.603 244.076 958.001 245.881C959.885 248.285 961.385 251.198 961.365 253.652C961.362 254.784 961.079 255.815 960.404 256.794L959.518 258.066L960.998 258.685C964.487 260.134 968.355 260.881 972.226 260.881C973.54 260.881 974.851 260.794 976.15 260.621C978.416 260.309 980.571 259.798 982.482 259.806C983.239 259.806 983.95 259.88 984.634 260.058C986.024 260.416 987.34 261.275 988.829 262.178C996.629 266.871 1006.16 269.284 1015.69 269.284C1021.62 269.284 1027.55 268.345 1033.06 266.42L1035.38 265.608L1033.42 264.185C1025.24 258.231 1015.84 253.471 1005.77 250.181C1002.72 249.19 999.707 248.31 997.537 246.734C995.985 245.621 994.762 244.1 993.495 242.486C989.892 237.918 986.289 233.348 982.689 228.78C981.864 227.741 980.769 226.696 979.511 225.867C978.256 225.049 976.831 224.414 975.261 224.404C974.23 224.395 973.132 224.732 972.261 225.459L974.079 227.404C974.46 227.098 974.792 226.999 975.261 226.991C975.957 226.98 976.962 227.341 977.932 227.987C978.905 228.621 979.834 229.505 980.472 230.32C984.075 234.888 987.678 239.456 991.278 244.026C992.554 245.635 993.914 247.383 995.86 248.786C998.601 250.747 1001.89 251.644 1004.87 252.623C1014.66 255.823 1023.8 260.454 1031.73 266.228L1032.58 265.208L1032.1 263.996C1026.92 265.807 1021.31 266.699 1015.69 266.696C1006.66 266.699 997.61 264.396 990.314 260C988.91 259.163 987.378 258.099 985.374 257.566C984.401 257.311 983.428 257.218 982.482 257.218C980.088 257.224 977.822 257.79 975.759 258.061C974.594 258.217 973.412 258.293 972.226 258.293C968.731 258.293 965.23 257.615 962.116 256.319L961.557 257.5L962.711 258.209C963.704 256.784 964.123 255.203 964.12 253.652C964.1 250.268 962.277 247.013 960.226 244.355C958.752 242.462 957.144 240.643 955.907 238.813C954.663 236.98 953.815 235.172 953.702 233.29L953.687 232.793C953.681 231.6 953.938 230.243 953.943 228.753C953.943 228.077 953.885 227.371 953.702 226.646C953.049 224.089 951.153 222.267 948.937 220.894C945.59 218.826 941.323 217.519 937.889 215.924C936.173 215.136 934.682 214.286 933.639 213.334C932.594 212.374 931.985 211.381 931.822 210.098L931.792 209.625C931.787 208.287 932.503 206.928 933.767 205.76C935.02 204.6 936.794 203.687 938.629 203.282C939.805 203.022 941.017 202.907 942.252 202.907C945.217 202.904 948.325 203.577 951.316 204.428C954.983 205.459 958.531 206.753 961.152 208.818C964.948 211.764 966.8 216.376 970.018 220.585C972.803 224.152 977.39 227.42 982.558 227.459C983.568 227.459 984.594 227.325 985.607 227.035L984.806 224.559Z" fill="#211D1D"/>
<path d="M963.674 382.647C969.08 380.458 971.052 377.004 977.725 373.653C983.868 370.568 992.079 373.259 998.743 371.068C1001.8 370.065 1004.26 368.117 1006.98 366.569C1017.15 360.795 1031.7 361.15 1041.45 367.411C1045.23 369.843 1048.46 373.459 1048.19 377.458C1047.96 380.669 1045.56 383.443 1044.25 386.468C1040.64 394.789 1046.96 405.131 1057.11 407.524C1047.65 413.845 1033.65 411.75 1022.75 407.346C1011.86 402.948 1001.83 396.515 989.944 394.663C978.759 392.923 967.33 395.467 956.361 397.989C947.34 400.062 938.317 402.138 929.293 404.212C924.184 405.388 916.067 408.309 911.409 405.122C909.883 404.078 903.469 395.42 907.355 394.17C898.037 397.171 887.231 396.733 878.301 392.992C906.286 373.369 928.641 389.23 958.163 384.151C960.386 383.768 962.163 383.257 963.674 382.647Z" fill="#7F989D"/>
<path d="M855.629 68.6138C875.039 56.7783 897.426 48.4056 920.885 44.2152C952.63 38.5423 992.688 36.7262 1005.63 11.7231C1009.82 3.62127 1010.01 -5.51183 1012.77 -14.0377C1019.75 -35.5861 1046.99 -52.3286 1073 -47.6978C1097.96 -43.2558 1117.94 -21.7265 1143.19 -24.8064C1168.37 -27.8754 1185.98 -54.8561 1210.93 -50.693C1225.65 -48.234 1235.27 -35.3701 1249.83 -32.3038C1272.22 -27.5882 1290.84 -47.3614 1313.14 -52.3971C1324.63 -54.9901 1336.81 -53.5212 1348.58 -52.0359C1373.84 -48.8466 1399.1 -45.6601 1424.36 -42.4708C1431.77 -41.5353 1441.58 -37.26 1438.53 -31.516C1436.41 -27.5252 1373.99 -23.9202 1366.71 -22.8453C1341.05 -19.0542 1315.55 -14.5328 1290.25 -9.29474C1247.35 -0.413338 1206.2 12.0102 1162.63 18.0251C1059.84 32.2129 958.767 54.9512 855.629 68.6138Z" fill="white"/>
<path d="M1066.68 304.993C1026.8 312.966 987.153 321.76 947.786 331.369C846.159 356.175 743.753 369.682 638.71 382.425C529.117 395.719 421.112 418.246 310.655 429.267C357.858 414.102 406.485 402.067 455.936 393.309C471.906 390.478 489.018 387.529 500.439 377.732C511.857 367.931 513.019 348.702 498.534 342.381C493.023 339.977 486.54 339.911 480.33 339.897C462.895 339.862 445.459 339.826 428.024 339.791C433.235 339.802 453.175 326.651 460.442 324.542C474.076 320.586 488.666 319.451 502.408 315.843C538.72 306.314 538.458 292.897 556.706 268.704C560.242 264.016 564.512 259.669 567.128 254.573C573.218 242.719 569.44 229.032 571.747 216.269C574.817 199.25 589.707 184.113 609.021 178.372C634.912 170.675 665.64 179.067 689.845 168.167C725.714 152.012 733.005 110.731 774.082 96.9319C804.03 86.8716 840.349 106.374 869.344 94.5114C881.269 89.6317 889.867 80.0636 902.042 75.6462C937.125 62.9163 973.592 98.6279 1011.51 94.6536C1027.67 92.9604 1041.9 84.1036 1058.12 82.7798C1085.95 80.5122 1111.21 100.767 1139.04 98.3653C1162.95 96.3002 1181.07 78.097 1204.7 74.3688C1236.22 69.3907 1264.01 90.9472 1285.82 110.704C1304.4 127.54 1324.3 150.696 1312.23 171.296C1308.04 178.454 1300.51 183.82 1295.39 190.544C1290.28 197.267 1288.16 206.974 1294.78 212.688C1299.84 217.057 1307.89 217.39 1315.13 217.784C1331.63 218.679 1347.99 221.318 1363.71 225.621C1367.57 226.677 1372.04 228.487 1372.44 231.885C1372.71 234.193 1370.89 236.28 1369.06 238.025C1344.07 261.882 1303.17 267.459 1265.78 272.29C1198.92 280.92 1132.49 291.836 1066.68 304.993Z" fill="white"/>
<path d="M1230.06 134.276C1229.7 128.929 1227.28 123.953 1225.04 118.94C1222.56 120.745 1219.49 122.361 1215.54 123.819C1195.46 131.243 1171.65 133.294 1150.15 131.804C1132.47 130.578 1110.29 128.491 1101.32 142.14C1100.39 143.563 1099.61 145.152 1098.13 146.134C1095.46 147.901 1091.72 147.025 1088.57 146.073C1078.15 142.936 1067.74 139.796 1057.32 136.656C1050.77 134.678 1043.05 131.443 1042.53 125.288C1026.77 121.434 1008.58 131.825 1005.91 146.199C1001.29 149.952 993.893 148.615 988.336 146.073C982.781 143.527 977.46 139.925 971.224 139.684C966.674 139.509 962.32 141.172 958.163 142.827C943.571 148.639 927.158 157.083 925.454 171.257C915.513 175.152 903.297 162.507 894.387 168.046C891.096 170.092 889.942 173.869 888.681 177.266C884.79 187.732 877.75 194.98 869.565 200.965C872.012 202.871 874.226 205.076 877.109 206.405C882.25 208.779 888.539 207.877 893.968 206.082C899.397 204.288 904.518 201.657 910.186 200.601C920.485 198.684 927.038 199.411 936.222 196.181C947.366 192.261 954.863 187.302 967.761 189.969C972.345 190.918 976.81 192.641 981.517 192.625C990.919 192.587 998.449 185.787 1007.4 183.21C1013.31 181.509 1019.67 181.703 1025.78 180.74C1031.9 179.777 1038.33 177.176 1040.78 172.086C1043.23 166.998 1038.9 159.662 1032.75 160.447C1042.34 154.312 1057.44 156.829 1063.89 165.636C1065.2 167.419 1066.26 169.468 1068.27 170.614C1070.99 172.162 1074.52 171.572 1077.68 170.986C1100.4 166.777 1126.84 166.531 1143.6 180.844C1146.4 183.238 1148.93 186.027 1152.4 187.559C1160.15 190.978 1170.1 187.124 1177.85 190.538C1182.66 192.658 1185.55 197.119 1189.73 200.114C1191.5 201.383 1193.85 202.217 1196.16 202.477C1199.29 202.83 1202.34 202.086 1203.72 199.619C1204.72 197.822 1204.47 195.702 1204.19 193.711C1203.05 185.48 1201.92 177.245 1200.78 169.014C1199.73 161.402 1200.71 151.079 1209.16 149.616C1212.12 149.101 1215.17 150.001 1218.18 149.763C1225.92 149.151 1230.53 141.194 1230.06 134.276Z" fill="#5D7F43"/>
<path d="M925.243 290.361C924.29 293.822 919.479 296.458 916.123 294.527C912.908 300.126 909.599 306.223 910.732 312.432C911.615 317.263 915.066 321.357 917.285 325.832C919.505 330.307 920.221 336.152 916.313 339.588C912.078 339.7 907.843 339.81 903.608 339.919C903.409 335.884 903.211 331.85 903.013 327.815C897.672 329.637 891.558 326.059 889.231 321.401C886.903 316.743 887.349 311.407 887.841 306.324C888.534 299.172 889.231 292.013 889.921 284.861C890.355 280.394 890.273 274.959 885.98 272.629C883.589 271.327 880.513 271.447 878.023 270.301C867.779 265.599 879.208 242.935 872.623 233.681C869.215 228.889 844.492 203.547 872.084 206.02C873.068 206.107 874.088 206.32 874.827 206.909C875.931 207.786 876.126 209.223 876.461 210.508C878.66 218.919 889.038 223.826 892.234 231.98C894.109 236.764 894.31 243.37 899.745 244.849C897.907 251.723 901.679 258.851 906.634 264.365C911.585 269.88 917.804 274.475 922.205 280.35C924.424 283.31 926.198 286.904 925.243 290.361ZM1196.16 202.477C1193.85 202.217 1191.5 201.383 1189.73 200.114C1185.55 197.119 1182.66 192.658 1177.85 190.538C1170.1 187.124 1160.16 190.978 1152.4 187.559C1148.93 186.027 1146.41 183.238 1143.61 180.844C1126.84 166.531 1100.4 166.777 1077.68 170.986C1074.53 171.572 1070.99 172.162 1068.27 170.614C1066.26 169.468 1065.2 167.419 1063.89 165.636C1057.44 156.828 1042.34 154.312 1032.75 160.447C1038.9 159.662 1043.23 166.998 1040.78 172.086C1038.33 177.176 1031.9 179.777 1025.79 180.74C1019.67 181.703 1013.31 181.509 1007.4 183.21C998.45 185.787 990.921 192.587 981.519 192.625C976.812 192.641 972.347 190.918 967.762 189.969C954.865 187.302 947.368 192.261 936.224 196.181C927.04 199.411 920.487 198.684 910.187 200.601C904.519 201.657 899.399 204.288 893.97 206.082C888.54 207.877 882.252 208.779 877.111 206.405C874.227 205.076 872.014 202.871 869.567 200.965C850.209 215.114 824.418 222.133 818.531 247.5C817.439 252.204 817.057 257.043 815.56 261.658C813.725 267.317 810.28 272.435 806.869 277.478C805.954 278.832 805.054 280.164 804.151 281.499C808.069 285.799 812.152 289.984 813.25 295.331C814.657 302.213 810.705 309.738 813.976 316.098C815.709 319.476 819.187 321.833 821.788 324.733C830.071 333.975 828.548 347.329 825.268 358.795C821.75 371.104 817.698 383.311 820.666 396.123C822.533 404.187 829.104 410.877 827.948 419.521C826.928 427.127 818.712 434.201 810.338 432.494C791.027 428.552 795.739 375.425 781.188 360.721C777.934 357.433 774.049 354.618 771.308 350.978C770.559 349.979 769.93 348.934 769.351 347.859C767.693 353.943 766.441 360.294 765.681 367.042C763.132 389.627 761.527 408.848 746.844 428.531C745.437 430.418 743.751 432.308 741.875 434.009C742.935 434.677 743.792 435.514 744.307 436.652C746.241 440.943 749.853 449.732 751.167 453.813C753.235 460.241 758.457 459.983 753.785 467.396C748.88 475.181 726.75 478.14 719.803 471.895C714.581 467.199 702.408 467.891 689.371 469.992C688.943 470.345 688.515 470.695 688.104 471.053C678.012 479.737 675.189 491.051 673.739 502.697C686.479 514.292 693.767 530.663 692.881 546.916C692.237 558.735 687.644 570.63 687.67 582.239C687.679 585.699 688.078 589.132 689.138 592.534C691.372 599.69 696.408 606.498 695.447 613.875C693.589 628.096 672.128 633.128 665.059 645.981C662.749 650.183 662.158 654.948 660.635 659.428C657.207 669.521 649.223 677.795 641.443 685.739C634.63 692.697 627.818 699.656 621.005 706.614C612.037 715.772 602.335 725.326 589.801 729.648C587.975 732.408 586.044 735.107 583.816 737.629C578.317 743.868 570.053 748.896 561.502 751.09C560.5 757 559.577 763.166 556.661 768.664C552.277 776.932 543.175 783.877 532.963 783.683C532.832 784.082 532.678 784.473 532.489 784.851C529.946 789.845 524.255 792.852 518.875 795.507C516.594 796.632 514.261 797.783 512.528 799.517C507.542 804.517 509.77 813.33 516.166 816.829C522.565 820.324 531.446 818.776 536.878 814.165C547.562 805.092 547.757 786.106 562.175 783.336C566.506 782.507 570.994 783.587 575.422 783.486C587.32 783.212 596.821 774.646 603.532 765.876C607.333 760.909 611.227 755.299 617.647 753.472C623.932 751.678 630.838 754.093 637.319 752.993C643.934 751.875 649.051 747.328 653.726 743.004C658.68 738.422 663.638 733.838 668.595 729.251C671.968 726.13 675.548 722.596 675.737 718.266C675.924 713.934 670.384 709.527 666.309 711.89C663.923 713.277 663.32 716.084 662.211 718.422C656.831 729.719 639.442 730.383 625.744 729.221C626.431 713.48 656.825 710.088 658.407 694.398C658.73 691.193 657.699 687.845 658.87 684.803C661.179 678.785 670.171 677.648 677.237 678.482C684.306 679.316 692.307 680.864 697.935 676.958C700.556 675.142 702.149 672.418 704.284 670.153C711.927 662.057 725.151 660.826 736.994 660.188C739.717 660.041 742.72 659.967 744.858 661.482C749.201 664.559 746.343 670.845 742.6 674.497C737.489 679.488 731.189 683.501 724.239 686.198C718.746 688.329 711.837 690.725 711.24 696.04C710.675 701.086 717.1 704.973 722.756 704.475C728.413 703.977 733.14 700.542 737.305 697.093C741.47 693.643 745.703 689.899 751.167 688.504C761.102 685.966 771.159 692.002 778.403 698.578C779.621 699.68 780.824 700.829 781.63 702.199C784.598 707.238 781.403 713.406 777.474 717.886C770.577 725.747 761.198 731.855 750.704 735.326C744.412 737.402 737.687 738.573 731.85 741.524C726.01 744.473 721.026 749.883 721.621 755.846C726.823 758.549 733.277 755.772 738.706 753.453C744.135 751.131 751.601 749.618 755.387 753.795C756.832 755.389 757.586 757.706 759.742 758.423C764.652 760.058 768.587 751.442 773.388 753.324C779.731 755.811 768.372 766.289 773.886 770.034C775.048 770.822 776.609 770.909 778.068 770.926C792.404 771.082 799.272 755.187 815.444 753.384C820.724 752.796 827.054 752.763 829.958 748.784C832.73 744.987 830.287 739.577 826.107 737C821.93 734.426 816.617 733.939 811.561 733.529C805.934 727.725 794.42 727.744 788.819 733.567C784.63 719.339 793.237 702.979 808.185 696.762C809.158 703.696 807.935 710.865 804.696 717.23C809.356 717.539 813.469 714.809 817.526 712.744C821.587 710.681 827.059 709.308 830.639 711.986C832.655 713.491 833.47 715.878 834.825 717.889C838.433 723.236 846.001 725.693 852.982 725.252C859.964 724.812 866.453 721.937 872.404 718.649C875.867 716.737 879.333 714.626 883.324 713.893C887.626 713.102 892.242 713.977 896.384 712.673C902.512 710.739 905.757 704.415 905.536 698.619C905.311 692.823 902.393 687.418 899.53 682.21C904.251 678.471 909.159 674.491 911.224 669.166C913.289 663.843 911.312 656.824 905.419 654.794C903.136 654.007 900.608 654.059 898.175 654.291C887.533 655.306 869.177 670.238 859.539 663.725C855.709 661.138 854.276 656.086 856.265 652.185C858.117 648.547 862.294 646.318 864.878 643.049C867.458 639.781 867.286 633.965 862.923 633.057C860.308 632.516 857.742 634.146 856.02 635.981C850.754 641.597 849.822 650.139 853.777 656.553C846.927 659.25 838.803 663.96 840.234 670.514C842.392 680.418 863.622 680.32 863.43 690.41C863.375 693.43 860.756 696.264 857.442 696.89C854.127 697.517 850.448 695.878 849.018 693.137C848.182 691.532 848.066 689.661 847.052 688.14C844.786 684.746 839.287 684.617 835.034 685.722C830.779 686.827 826.506 688.758 822.152 688.028C817.305 687.213 813.746 683.274 808.951 682.235C804.641 681.299 800.213 682.856 795.876 683.698C791.536 684.54 786.206 684.324 783.704 681.056C782.262 679.171 782.158 676.75 782.105 674.472C781.989 669.751 782.359 664.176 786.806 661.624C790.459 659.532 796.136 660.024 798.241 656.641C800.14 653.585 797.344 649.759 793.957 648.003C790.566 646.247 786.509 645.557 783.451 643.377C775.619 637.792 778.756 626.422 784.543 619.121C786.736 616.359 789.361 613.662 792.9 612.439C794.828 611.774 796.942 611.577 798.807 610.781C805.177 608.062 805.637 600.36 808.185 594.487C811.774 586.216 820.474 580.754 828.714 575.792C830.82 574.523 833.22 573.191 835.722 573.598C841.081 574.465 840.967 581.653 837.932 585.691C834.9 589.725 830.167 593.525 830.686 598.358C831.096 602.157 834.781 605.256 834.918 609.069C835.014 611.75 833.328 614.195 831.705 616.452C827.957 621.659 824.211 626.867 820.465 632.078C819.894 632.871 819.309 633.695 819.146 634.627C818.729 637.015 821.292 639.1 823.94 639.619C831.277 641.066 837.263 634.595 841.267 628.919C845.963 622.269 851.753 615.667 854.992 608.309C857.718 602.111 856.402 590.089 863.783 586.495C865.784 585.516 868.163 585.39 870.304 584.69C873.403 583.68 875.838 581.55 878.465 579.766C884.669 575.559 892.394 573.163 900.188 573.029C907.525 581.952 924.928 580.795 932.012 571.708C937.435 564.752 936.897 554.569 930.768 548.097C927.701 538.343 919.773 529.891 909.549 525.477C908.612 519.516 917.673 516.576 924.378 517.211C931.089 517.842 939.096 519.388 943.602 514.91C948.174 510.364 946.619 501.458 953.01 499.254C956.327 498.11 960.175 499.628 963.583 498.723C971.036 496.74 970.317 485.873 977.147 482.56C980.287 481.034 984.146 481.587 987.644 480.925C999.406 478.698 1002.46 464.885 1011.5 457.812C1021.52 449.97 1038.74 450.697 1045.8 440.612C1048.29 437.048 1049.08 432.551 1052.32 429.502C1054.87 427.097 1058.55 425.968 1061.57 424.042C1064.65 422.073 1066.16 419.343 1065.79 415.984C1072.55 417.91 1077.85 412.297 1085.4 414.578C1089.11 415.699 1092.27 418.035 1096.05 418.987C1102.95 420.732 1110.15 417.518 1116.03 413.848C1121.91 410.18 1127.69 405.801 1134.78 404.799C1141.86 403.798 1150.47 408.15 1149.99 414.534C1156.63 413.935 1162.1 409.173 1167.48 405.01C1162.95 393.142 1158.03 381.123 1160.54 368.973C1162.95 357.351 1171.93 347.46 1174.37 335.846C1176.81 324.23 1166.73 309.046 1154.11 312.651C1152.61 298.759 1174.8 292.167 1179.33 278.81C1181.34 272.897 1179.53 266.556 1179.42 260.38C1179.16 246.285 1187.65 233.432 1192.75 220.092C1194.86 214.57 1196.18 208.418 1196.16 202.477Z" fill="#AFB7A0"/>
<path d="M1402.94 454.415C1397.17 456.05 1391.01 454.026 1384.99 453.449C1378.98 452.872 1371.44 454.904 1370.41 460.227C1369.87 463.099 1371.48 466.015 1371.1 468.909C1370.52 473.329 1365.51 476.231 1360.68 477.323C1355.84 478.414 1350.67 478.359 1346.06 480.05C1333.58 484.612 1328.8 500.301 1315.63 502.925C1311.13 503.822 1306.38 502.946 1301.84 503.677C1297.3 504.41 1292.58 507.889 1293.6 511.904C1300.53 512.955 1307.45 514.005 1314.38 515.053C1313.63 520.307 1307.97 523.94 1302.31 525.556C1296.66 527.173 1290.56 527.465 1285.08 529.52C1283.61 530.072 1282.12 530.816 1281.35 532.066C1278.95 535.999 1285.57 539.684 1290.56 539.186C1295.55 538.683 1301.12 536.7 1305.2 539.309C1302.47 543.981 1299.75 548.653 1297.02 553.325C1315.86 556.279 1325.63 531.122 1344.32 527.512C1349.65 526.483 1355.21 527.361 1360.64 526.891C1366.07 526.418 1372 523.907 1373.29 519.18C1373.88 517.049 1373.48 514.596 1374.95 512.837C1378.01 509.169 1384.78 512.367 1389.6 510.786C1394.94 509.032 1396.64 501.776 1402.29 501.152C1404.83 500.873 1407.35 502.134 1409.88 501.792C1413.13 501.355 1415.33 498.439 1418.51 497.67C1425.28 496.034 1429.41 505.367 1425.88 510.775C1422.36 516.18 1415.34 518.825 1410.11 522.985C1404.87 527.143 1401.77 535.296 1407.21 539.243C1400.12 537.537 1393.41 544.555 1393.8 551.093C1394.19 557.63 1399.29 563.139 1404.61 567.638C1409.94 572.143 1415.92 576.372 1419.06 582.291C1408.44 587.31 1397.82 592.329 1387.2 597.349C1383.18 599.25 1378.47 602.688 1380.19 606.441C1380.93 608.041 1382.67 609.056 1383.89 610.399C1388.21 615.153 1382.92 623.687 1376.11 622.954C1370.8 622.379 1366.81 617.587 1361.46 617.491C1352.38 617.33 1351.06 627.445 1345.32 631.433C1338.4 636.241 1331.53 635.218 1325.48 642.262C1319.83 648.848 1314.17 655.435 1308.51 662.019C1304.97 666.138 1301.39 671.975 1304.96 676.067C1308.34 679.929 1316.48 679.675 1317.94 684.396C1320.34 692.12 1297.13 702.684 1296.4 713.338C1296.19 716.338 1296.63 719.588 1294.83 722.131C1290.82 727.826 1279.05 725.745 1275.77 731.801C1271.33 740.004 1289.29 747.293 1286.07 755.939C1281.19 760.972 1271.3 754.148 1264.65 757.157C1262.03 758.338 1260.54 760.794 1259.04 763.04C1256.19 767.321 1252.74 771.273 1248.86 774.859C1252.5 791.424 1252.94 808.547 1249.85 825.207C1257.49 823.046 1263.43 816.698 1264.44 809.6C1269.27 815.295 1273.36 821.493 1276.6 828.025C1280.06 811.318 1283.52 794.613 1286.98 777.904C1288.37 771.197 1293.68 762.427 1300.69 765.146C1302.66 765.929 1305.2 772.441 1307.35 778.998C1307.45 776.011 1307.35 773.032 1306.83 770.081C1306.48 768.046 1305.94 766.008 1306.07 763.954C1306.54 756.344 1315.79 750.688 1315.56 743.073C1315.52 741.494 1315.05 739.954 1314.66 738.414C1317.06 738.529 1319.55 738.666 1321.67 739.689C1323.78 740.709 1325.4 742.889 1324.8 744.968C1324.44 746.218 1323.33 747.351 1323.55 748.628C1323.89 750.638 1326.93 751.04 1328.66 752.373C1331.42 754.506 1330.29 758.513 1328.65 761.432C1327.02 764.348 1325.08 767.821 1326.87 770.666C1327.6 771.826 1328.84 772.641 1329.95 773.53C1336.98 779.167 1338.88 789.263 1334.3 796.64C1332.11 800.16 1328.51 803.555 1329.19 807.535C1329.5 809.343 1330.68 810.921 1331.83 812.434C1334.23 815.579 1336.62 818.722 1339.01 821.867C1347.13 822.412 1356.13 820.131 1360.15 813.87C1362.74 809.854 1362.83 804.991 1364.08 800.5C1365.71 794.673 1369.42 789.326 1374.55 785.439C1375.52 784.701 1376.63 783.99 1377.9 783.913C1381.85 783.675 1383.06 789.044 1386.67 790.494C1391.98 792.616 1395.63 785.576 1400.4 782.605C1404.26 780.201 1409.16 780.611 1414.07 781.046C1412.68 777.477 1411.3 773.905 1409.92 770.338C1408.21 765.945 1406.31 761.303 1402.2 758.448C1399.62 756.651 1396.41 755.753 1393.39 754.635C1378.93 749.29 1367.46 737.884 1363.07 724.484C1361.65 720.151 1360.78 715.384 1357.26 712.145C1350.98 706.371 1337.08 705.58 1337.53 697.547C1337.66 695.312 1339.1 693.34 1340.22 691.338C1345.2 682.418 1343.74 670.944 1336.64 663.247C1335.12 661.6 1333.29 659.97 1332.97 657.853C1332.66 655.834 1333.82 653.881 1335.08 652.18C1339.62 646.061 1347.29 640.714 1355.39 642.002C1358.01 642.415 1360.46 643.501 1363.11 643.799C1368.42 644.395 1373.42 641.764 1378.04 639.346C1384.74 635.837 1392.08 632.47 1399.83 632.932C1407.58 633.394 1415.41 639.258 1414.44 646.129C1406.69 649.228 1402.92 658.452 1406.62 665.268C1407.49 666.876 1408.74 668.477 1408.57 670.257C1408.23 673.704 1403.38 674.833 1399.75 676.075C1392.29 678.63 1386.82 686.141 1388.9 693.026C1390.99 699.91 1401.8 703.759 1407.81 699.049C1413.18 694.836 1412.32 687.369 1413.73 681.119C1415.42 673.646 1421.15 666.989 1428.81 663.608C1430.53 662.847 1432.35 662.237 1433.93 661.261C1436.18 659.858 1437.8 657.795 1439.47 655.845L1440 655.271V431.061C1434.1 431.564 1428.33 432.404 1423.64 435.478C1415.55 440.774 1412.5 451.699 1402.94 454.415Z" fill="#ACB497"/>
<path d="M1435.18 772.846C1432.43 774.775 1430.78 777.772 1427.9 779.539C1423.99 781.938 1419.02 781.482 1414.07 781.047C1409.16 780.612 1404.26 780.201 1400.4 782.606C1395.63 785.576 1391.98 792.617 1386.67 790.494C1383.06 789.044 1381.85 783.675 1377.9 783.913C1376.63 783.99 1375.52 784.701 1374.55 785.439C1369.42 789.326 1365.71 794.674 1364.08 800.5C1362.83 804.991 1362.73 809.854 1360.15 813.87C1356.13 820.131 1347.13 822.412 1339.01 821.868C1338.72 821.849 1338.43 821.854 1338.14 821.827C1331.02 821.17 1323.92 818.621 1319.17 813.853C1313.51 808.164 1313.71 799.608 1311.48 792.6C1310.87 790.708 1309.27 784.832 1307.35 778.998C1305.2 772.441 1302.66 765.929 1300.69 765.146C1293.68 762.428 1288.37 771.197 1286.98 777.904C1283.52 794.613 1280.06 811.318 1276.6 828.025C1273.36 821.493 1269.27 815.295 1264.43 809.6C1263.43 816.698 1257.49 823.047 1249.85 825.207C1252.94 808.547 1252.5 791.424 1248.86 774.859C1244.5 754.944 1235.5 735.83 1222.27 719.317C1218.79 714.973 1214.97 710.696 1213.13 705.613C1211.17 700.2 1211.63 694.355 1210.86 688.71C1209.23 676.877 1202.22 666.185 1199.03 654.609C1194.58 638.498 1197.71 621.616 1198.33 605.035C1198.59 598.046 1193.75 588.156 1186.67 591.151C1183.19 592.617 1182.2 596.526 1181.61 599.912C1178.01 620.64 1174.42 641.411 1173.13 662.358C1171.43 690.162 1173.27 719.96 1156.73 743.571C1153.74 747.835 1150.12 752.066 1147.13 756.435C1143.33 761.968 1140.56 767.723 1141.37 774.05C1142.33 781.473 1148.31 788.678 1145.73 795.784C1144 800.524 1138.97 803.539 1135.25 807.256C1116.18 826.307 1141.72 835.361 1140.23 851.45C1138.65 868.567 1122.19 858.372 1112.26 866.942C1107.9 870.703 1101.58 875.211 1096.63 872.084C1094.84 870.952 1093.87 869.067 1093 867.276C1090.28 861.748 1087.57 856.223 1084.86 850.695C1077.65 835.998 1070.31 820.749 1070.46 804.709C1063.54 806.003 1060.65 813.509 1060.66 819.822C1060.66 826.135 1062.18 832.836 1059.04 838.493C1052.32 835.115 1050.51 827.199 1050.86 820.328C1051.21 813.459 1052.97 806.386 1050.61 799.841C1050.28 798.924 1049.86 798.041 1049.4 797.171C1047.88 794.258 1045.85 791.536 1044.32 788.612C1042.26 784.674 1041.17 780.396 1040.09 776.156C1035.68 758.743 1031.26 741.33 1026.84 723.918C1025.9 720.231 1024.81 716.3 1021.66 713.775C1010.22 730.636 1018.3 752.758 1012.17 771.695C1009.99 778.445 1005.96 784.953 1006.25 791.979C1006.4 795.472 1007.63 798.894 1007.57 802.387C1007.37 814.294 992.633 823.791 994.686 835.558C988.671 837.177 982.695 831.972 981.349 826.498C980.006 821.025 981.658 815.366 982.025 809.772C983.367 789.362 967.627 770.529 968.076 750.086C968.207 744.238 969.666 738.308 968.242 732.594C966.232 724.525 958.831 718.3 956.116 710.397C953.492 702.774 955.511 694.596 956.137 686.642C957.439 670.052 952.339 653.118 941.888 639.346C932.518 646.105 939.395 659.349 938.847 670.088C938.367 679.612 931.344 688.127 930.823 697.646C930.336 706.453 935.489 715.143 933.791 723.833C932.037 732.813 923.433 739.503 920.023 748.1C916.676 756.533 918.607 766.041 915.485 774.542C911.308 785.907 898.687 793.93 895.964 805.642C895.008 809.745 895.346 814.097 893.701 818.019C892.055 821.947 887.258 825.391 882.883 823.862C879.175 822.562 877.835 818.585 876.967 815.12C875.499 809.269 874.861 794.102 867.431 791.246C856.637 787.1 856.442 800.998 855.944 807.803C855.708 811.047 855.702 814.324 855.035 817.521C854.269 821.181 852.655 824.658 851.053 828.099C849.014 832.478 846.975 836.857 844.934 841.239C838.884 854.237 836.682 869.221 821.886 875.837C811.616 865.09 810.934 849.77 809.285 835.725C807.611 821.46 806.719 806.512 802.63 792.614C800.405 785.054 791.37 771.911 786.677 785.407C777.808 810.948 770.719 835.254 765.668 861.638C763.481 873.061 761.183 884.765 754.641 894.776C750.015 901.858 739.305 908.201 732.335 902.862C728.202 899.694 728.03 894.15 728.01 889.292C727.902 865.35 727.576 836.02 719.82 813.016C718.308 808.53 716.418 803.93 717.172 799.294C717.813 795.357 720.335 791.752 720.53 787.775C720.722 783.796 716.619 779.208 712.529 780.798C709.739 781.884 708.952 785.015 708.527 787.704C705.641 805.902 704.097 824.863 699.448 842.754C694.383 862.237 684.398 881.983 688.893 902.369C689.534 905.28 690.477 908.182 690.349 911.144C690.02 918.693 682.293 924.946 673.904 925.988C665.516 927.033 657.005 923.669 650.777 918.548C648.535 916.705 646.458 914.593 643.685 913.463C634.513 909.727 624.607 918.442 614.544 917.922C601.137 917.227 596.054 902.2 586.413 893.863C585.207 892.82 583.8 891.83 582.131 891.661C577.343 891.177 575.357 896.94 575.147 901.234C574.352 917.487 573.557 933.74 572.761 949.993C570.877 952.337 566.493 951.79 564.3 949.67C562.107 947.553 561.516 944.522 561.02 941.672C558.571 927.605 556.121 913.537 553.672 899.467C550.541 897.025 547.302 902.451 547.52 906.16C547.998 914.383 548.478 922.602 548.959 930.835C549.69 943.549 535.54 942.766 528.119 934.916C523.627 930.168 521.728 923.945 519.896 917.949C516.462 906.724 512.792 895.441 506.556 885.219C500.011 874.494 490.475 864.431 489.639 852.24C489.377 848.402 490.012 844.475 488.964 840.744C487.918 837.01 484.429 833.369 480.124 833.621C477.811 844.915 486.368 856.833 482.072 867.659C480.668 871.195 477.997 874.221 476.317 877.664C471.438 887.673 475.589 899.319 473.561 910.08C471.368 921.719 462.051 931.746 461.043 943.513C460.754 946.875 461.118 950.444 459.342 953.418C457.882 955.857 455.206 957.493 452.625 959.028C436.463 968.617 419.091 979.033 412.36 995.273C411.658 996.968 411.09 998.697 410.583 1000.44C415.017 1000.35 419.38 1001.05 423.653 1002.94C428.936 1005.28 433.026 1009.2 438.26 1011.61C448.769 1016.45 461.619 1014.45 473.585 1013.8C485.553 1013.14 499.758 1015.09 505.228 1024.04C508.642 1029.63 512.26 1026.25 514.5 1032.25C519.842 1046.54 543.192 1054.53 553.672 1042.4C557.184 1038.34 557.648 1039.19 560.484 1034.77C568.017 1023.03 585.059 1016.17 600.694 1018.58C616.326 1020.99 629.34 1032.49 631.397 1045.71C632.372 1051.97 631.382 1059.06 636.249 1063.87C642.508 1070.07 654.82 1068.43 662.591 1063.58C670.368 1058.74 675.663 1051.56 683.225 1046.48C695.356 1038.33 713.135 1036.62 727.151 1042.25C731.412 1043.96 736.09 1046.35 740.508 1044.94C746.648 1042.99 747.143 1035.43 752.497 1032.25C757.979 1028.99 765.517 1031.71 772.207 1031.24C788.308 1030.09 795.162 1011.45 810.832 1008.14C823.281 1005.52 834.914 1013.57 847.037 1017.12C864.97 1022.36 884.534 1017.58 903.275 1014.97C937.97 1010.15 960.5 1031.73 995.627 1031.52C1015.97 1031.4 1036.24 1028.3 1056.57 1029.01C1081.82 1029.91 1106.68 1036.68 1131.89 1035.22C1151.59 1034.08 1170.43 1027.96 1190.05 1026.11C1209.67 1024.26 1232.14 1027.95 1243.2 1041.66C1251.29 1051.68 1251.61 1064.96 1259.24 1075.22C1265.91 1084.17 1277.29 1089.75 1288.22 1094.98C1294.04 1097.76 1300.22 1100.63 1306.92 1100.62C1313.63 1100.61 1320.82 1096.55 1320.89 1090.93C1320.97 1084.17 1311.46 1079.55 1310.98 1072.81C1310.56 1066.97 1317.16 1062.43 1323.72 1060.43C1330.28 1058.44 1337.56 1057.82 1343.36 1054.57C1352.82 1049.25 1358.94 1037.09 1370.17 1038.68C1379.83 1040.04 1383.8 1051.27 1393.38 1052.99C1399.78 1054.14 1405.83 1050.57 1411.46 1047.76C1420.18 1043.42 1429.96 1040.79 1440 1039.74V770.735C1438.25 771.191 1436.6 771.848 1435.18 772.846Z" fill="#416437"/>
<path d="M1319.17 813.853C1323.92 818.62 1331.03 821.169 1338.14 821.826C1338.43 821.853 1338.72 821.848 1339.01 821.867C1336.62 818.721 1334.23 815.579 1331.83 812.433C1330.68 810.92 1329.5 809.342 1329.19 807.534C1328.51 803.554 1332.11 800.16 1334.3 796.64C1338.88 789.263 1336.98 779.167 1329.95 773.529C1328.84 772.64 1327.6 771.825 1326.87 770.665C1325.08 767.821 1327.02 764.347 1328.65 761.431C1330.29 758.513 1331.42 754.506 1328.66 752.372C1326.93 751.04 1323.89 750.638 1323.55 748.627C1323.33 747.35 1324.44 746.218 1324.8 744.968C1325.4 742.889 1323.78 740.709 1321.67 739.689C1319.55 738.666 1317.06 738.529 1314.66 738.414C1315.05 739.954 1315.52 741.494 1315.56 743.072C1315.79 750.687 1306.54 756.344 1306.07 763.953C1305.94 766.007 1306.48 768.045 1306.83 770.08C1307.35 773.031 1307.45 776.01 1307.35 778.997C1309.27 784.831 1310.88 790.707 1311.48 792.6C1313.71 799.607 1313.51 808.163 1319.17 813.853Z" fill="#5C7E44"/>
<path d="M1433.93 661.261C1432.35 662.237 1430.53 662.847 1428.81 663.607C1421.15 666.988 1415.42 673.646 1413.73 681.119C1412.32 687.369 1413.18 694.836 1407.81 699.048C1401.8 703.758 1390.99 699.91 1388.9 693.025C1386.82 686.141 1392.29 678.629 1399.75 676.075C1403.37 674.833 1408.23 673.703 1408.57 670.257C1408.74 668.476 1407.49 666.876 1406.62 665.268C1402.92 658.451 1406.69 649.228 1414.44 646.129C1415.41 639.258 1407.58 633.394 1399.83 632.931C1392.08 632.469 1384.74 635.836 1378.04 639.346C1373.42 641.764 1368.42 644.395 1363.1 643.799C1360.46 643.5 1358.01 642.415 1355.39 642.002C1347.29 640.713 1339.62 646.061 1335.08 652.179C1333.82 653.881 1332.66 655.834 1332.97 657.852C1333.29 659.969 1335.12 661.6 1336.64 663.246C1343.74 670.943 1345.2 682.418 1340.22 691.337C1339.1 693.34 1337.66 695.312 1337.53 697.547C1337.08 705.58 1350.98 706.371 1357.26 712.145C1360.78 715.383 1361.65 720.151 1363.07 724.483C1367.46 737.884 1378.93 749.29 1393.39 754.634C1396.41 755.753 1399.61 756.65 1402.2 758.447C1406.31 761.303 1408.21 765.945 1409.91 770.337C1411.3 773.904 1412.68 777.476 1414.06 781.046C1419.02 781.481 1423.99 781.938 1427.9 779.539C1430.78 777.772 1432.43 774.774 1435.18 772.846C1436.6 771.847 1438.25 771.191 1440 770.734V655.27L1439.47 655.845C1437.8 657.795 1436.18 659.857 1433.93 661.261Z" fill="#5C7E43"/>
<path d="M1050.86 820.327C1050.51 827.198 1052.32 835.114 1059.04 838.492C1062.19 832.836 1060.66 826.134 1060.66 819.821C1060.65 813.508 1063.54 806.003 1070.46 804.709C1070.31 820.749 1077.65 835.998 1084.86 850.694C1087.57 856.222 1090.28 861.748 1093 867.276C1093.88 869.067 1094.84 870.952 1096.63 872.084C1101.58 875.211 1107.9 870.703 1112.26 866.942C1122.19 858.372 1138.65 868.567 1140.23 851.449C1141.72 835.36 1116.18 826.307 1135.25 807.256C1138.97 803.538 1144 800.524 1145.73 795.784C1148.31 788.678 1142.33 781.473 1141.37 774.049C1140.56 767.723 1143.34 761.968 1147.13 756.434C1144.8 755.589 1142.38 754.976 1139.85 754.739C1131.4 753.948 1122.04 757.941 1119.31 765.127C1118.89 766.235 1118.58 767.463 1117.58 768.212C1116.72 768.858 1115.54 769.003 1114.43 769.123C1108.14 769.81 1101.85 770.496 1095.56 771.183C1093.78 771.377 1091.97 771.569 1090.23 771.205C1088.45 770.83 1086.77 769.884 1084.95 769.993C1081.81 770.182 1080.01 773.305 1079.49 776.076C1078.97 778.847 1079 781.913 1077 784.088C1075.6 785.622 1073.43 786.407 1071.36 787.13C1067.03 788.645 1062.69 790.16 1058.36 791.673C1056.42 792.351 1054.45 793.043 1052.78 794.159C1051.5 795.01 1050.44 796.085 1049.4 797.171C1049.86 798.041 1050.28 798.924 1050.61 799.84C1052.97 806.386 1051.21 813.459 1050.86 820.327Z" fill="#A8B79D"/>
<path d="M1425.78 -140.596C1412.41 -122.097 1404.15 -99.2553 1383.51 -87.2038C1369.1 -78.7955 1351.53 -76.5581 1336.76 -68.913C1326.11 -63.396 1304.63 -44.9903 1308.74 -32.9415C1309.24 -31.4754 1310.01 -30.0504 1310.09 -28.5214C1310.18 -26.5 1309.05 -24.6017 1307.8 -22.9196C1299.39 -11.6038 1283.59 -3.64405 1281.98 9.85448C1281.65 12.6034 1281.96 15.4098 1282.29 18.208C1288.21 23.7141 1296.66 26.8595 1304.71 24.6522C1315.65 21.6461 1320.99 11.0005 1326.1 1.86198C1331.22 -7.27654 1339.86 -17.1399 1351.24 -16.0869C1355.42 -14.1093 1351.94 -8.35154 1347.89 -6.177C1343.84 -4.00247 1338.55 -0.70368 1340.38 3.18313C1349.66 1.24383 1359.25 0.491598 1368.77 0.962063C1384.85 1.75529 1402.85 5.5491 1415.66 -3.14631C1420.53 -6.45051 1424.11 -11.9729 1422.72 -17.2875C1421.33 -22.6049 1413.42 -26.2018 1408.6 -22.8293C1405.85 -20.8982 1404.93 -17.5447 1402.66 -15.1622C1398.78 -11.084 1390.79 -10.9692 1386.76 -14.9299C1382.74 -18.8932 1383.65 -25.9721 1388.58 -29.0191C1394.26 -32.5312 1402.1 -30.4032 1408.79 -31.9514C1418.94 -34.3065 1424 -44.1644 1431.45 -50.7509C1434.01 -53.0184 1436.92 -54.8975 1440 -56.5605V-155C1434.45 -150.793 1429.55 -145.807 1425.78 -140.596Z" fill="#5D7F43"/>
<path d="M1384.99 453.449C1391.01 454.026 1397.17 456.05 1402.94 454.414C1412.5 451.698 1415.55 440.774 1423.64 435.478C1428.33 432.404 1434.1 431.564 1440 431.061V382.335C1433.91 382.66 1427.82 382.983 1421.74 383.306C1419.16 383.445 1416.43 383.626 1414.31 384.944C1411.91 386.438 1410.7 389.156 1408.2 390.518C1405.57 391.957 1402.42 391.492 1399.24 391.027C1396.4 390.611 1393.53 390.198 1390.98 391.145C1385.42 393.199 1383.64 400.852 1377.66 401.391C1375.95 401.544 1374.24 401.036 1372.56 400.53C1370.4 399.881 1368.29 399.236 1366.25 399.966C1363.07 401.109 1362.39 404.758 1360.63 407.387C1359.29 409.392 1357.2 410.891 1355.16 412.346C1346.62 418.413 1337.81 424.611 1327.37 427.475C1322.86 428.711 1317.94 429.378 1314.3 432.062C1310.9 434.567 1309.04 438.566 1305.28 440.612C1301.48 442.669 1296.7 442.264 1292.27 441.928C1275.47 440.659 1256.98 441.961 1244.48 452.043C1237.72 452.718 1231.48 455.675 1224.76 456.616C1218.04 457.554 1209.81 455.517 1207.68 449.756C1205.46 443.793 1210.82 437.986 1213.68 432.239C1219.95 419.603 1202.07 415.398 1195.1 407.915C1192.02 404.624 1189.29 400.661 1184.79 399.192C1178.37 397.108 1172.98 400.748 1167.48 405.01C1162.1 409.173 1156.62 413.935 1149.99 414.534C1150.47 408.15 1141.86 403.798 1134.77 404.799C1127.69 405.8 1121.91 410.18 1116.03 413.848C1110.15 417.518 1102.95 420.732 1096.04 418.987C1092.27 418.035 1089.11 415.699 1085.4 414.578C1081.54 413.41 1078.26 414.31 1075.08 415.207C1072.04 416.066 1069.09 416.925 1065.78 415.984C1066.16 419.343 1064.65 422.073 1061.57 424.042C1058.55 425.968 1054.86 427.097 1052.32 429.502C1049.08 432.551 1048.29 437.048 1045.79 440.612C1038.74 450.697 1021.52 449.969 1011.5 457.812C1002.46 464.885 999.404 478.698 987.643 480.924C984.145 481.586 980.285 481.034 977.145 482.557C970.315 485.875 971.035 496.74 963.581 498.723C961.956 499.152 960.231 499.035 958.513 498.917C956.625 498.786 954.744 498.654 953.008 499.253C946.618 501.458 948.173 510.364 943.6 514.91C939.094 519.388 931.087 517.842 924.376 517.21C917.671 516.576 908.61 519.516 909.548 525.476C919.771 529.891 927.7 538.343 930.767 548.097C936.895 554.569 937.434 564.752 932.013 571.708C924.927 580.794 907.524 581.951 900.187 573.029C892.392 573.163 884.668 575.556 878.464 579.766C875.837 581.549 873.402 583.68 870.305 584.689C868.162 585.39 865.782 585.516 863.781 586.495C856.4 590.089 857.717 602.11 854.99 608.309C851.752 615.666 845.961 622.269 841.266 628.919C837.261 634.594 831.275 641.066 823.938 639.619C821.291 639.099 818.728 637.015 819.144 634.627C819.307 633.694 819.893 632.871 820.464 632.078C824.209 626.867 827.955 621.659 831.704 616.451C833.326 614.195 835.012 611.749 834.916 609.069C834.779 605.256 831.095 602.157 830.684 598.358C830.166 593.524 834.899 589.725 837.931 585.691C840.966 581.653 841.08 574.465 835.72 573.598C833.218 573.19 830.818 574.522 828.712 575.789C820.472 580.753 811.772 586.216 808.184 594.487C805.635 600.36 805.175 608.062 798.805 610.778C796.941 611.577 794.826 611.774 792.898 612.439C789.359 613.661 786.732 616.358 784.542 619.121C778.754 626.421 775.617 637.795 783.449 643.375C786.508 645.557 790.565 646.247 793.952 648.003C797.343 649.759 800.139 653.585 798.24 656.641C796.134 660.024 790.457 659.532 786.808 661.624C782.357 664.176 781.987 669.751 782.104 674.472C782.156 676.75 782.261 679.171 783.703 681.056C786.205 684.324 791.538 684.54 795.875 683.698C800.212 682.855 804.639 681.299 808.95 682.234C813.744 683.274 817.303 687.213 822.15 688.028C826.505 688.758 830.777 686.827 835.033 685.722C839.285 684.617 844.785 684.745 847.051 688.14C848.064 689.661 848.181 691.532 849.017 693.137C850.447 695.878 854.125 697.516 857.44 696.89C860.755 696.264 863.373 693.43 863.429 690.41C863.621 680.32 842.39 680.418 840.232 670.514C838.802 663.96 846.925 659.25 853.776 656.553C849.82 650.139 850.753 641.597 856.019 635.981C857.74 634.146 860.306 632.516 862.922 633.057C867.285 633.965 867.457 639.78 864.876 643.049C862.293 646.318 858.116 648.547 856.263 652.185C854.274 656.085 855.707 661.137 859.537 663.725C869.175 670.238 887.531 655.306 898.174 654.291C900.606 654.059 903.134 654.007 905.418 654.794C911.307 656.824 913.288 663.843 911.223 669.165C909.158 674.491 904.25 678.471 899.528 682.21C902.391 687.418 905.31 692.823 905.534 698.619C905.756 704.415 902.511 710.739 896.383 712.672C892.241 713.977 887.624 713.102 883.322 713.892C879.332 714.626 875.866 716.737 872.403 718.649C866.452 721.937 859.962 724.812 852.981 725.252C845.999 725.692 838.432 723.236 834.823 717.889C833.469 715.878 832.653 713.49 830.638 711.986C827.058 709.308 821.585 710.681 817.525 712.744C813.467 714.809 809.355 717.539 804.694 717.229C807.933 710.865 809.157 703.695 808.184 696.761C793.236 702.976 784.629 719.338 788.817 733.567C794.418 727.744 805.932 727.725 811.56 733.529C816.616 733.939 821.929 734.426 826.106 737C830.285 739.577 832.729 744.987 829.956 748.783C827.052 752.763 820.723 752.796 815.442 753.384C799.271 755.187 792.403 771.081 778.067 770.925C776.607 770.909 775.046 770.822 773.884 770.034C768.37 766.289 779.73 755.81 773.386 753.324C770.957 752.372 768.749 754.106 766.527 755.84C764.357 757.536 762.166 759.229 759.74 758.423C757.585 757.706 756.83 755.389 755.386 753.794C751.599 749.618 744.131 751.13 738.705 753.453C733.276 755.772 726.821 758.548 721.619 755.846C721.025 749.883 726.008 744.473 731.848 741.524C737.685 738.573 744.411 737.405 750.702 735.326C761.196 731.855 770.575 725.747 777.472 717.886C781.405 713.406 784.597 707.238 781.629 702.199C780.822 700.829 779.619 699.683 778.402 698.578C771.158 692.002 761.1 685.965 751.165 688.504C745.701 689.899 741.469 693.643 737.304 697.092C733.139 700.542 728.411 703.977 722.755 704.475C717.098 704.973 710.673 701.086 711.238 696.039C711.835 690.725 718.744 688.329 724.237 686.198C731.187 683.501 737.487 679.488 742.599 674.496C746.342 670.848 749.199 664.559 744.856 661.482C742.718 659.967 739.715 660.041 736.992 660.188C725.149 660.826 711.926 662.056 704.283 670.153C702.145 672.418 700.554 675.142 697.933 676.958C692.306 680.864 684.305 679.316 677.236 678.484C670.169 677.647 661.178 678.785 658.868 684.803C657.697 687.845 658.728 691.192 658.405 694.398C656.824 710.088 626.43 713.479 625.742 729.221C639.441 730.383 656.829 729.719 662.209 718.422C663.319 716.081 663.922 713.277 666.307 711.89C670.382 709.527 675.922 713.933 675.736 718.266C675.546 722.596 671.967 726.13 668.594 729.251C663.636 733.838 658.679 738.422 653.721 743.004C649.047 747.328 643.932 751.874 637.317 752.993C634.367 753.494 631.329 753.267 628.303 753.037C624.679 752.766 621.07 752.492 617.645 753.469C611.225 755.299 607.331 760.909 603.53 765.876C596.819 774.645 587.318 783.212 575.42 783.486C573.728 783.524 572.027 783.39 570.329 783.256C567.585 783.04 564.85 782.824 562.173 783.338C547.755 786.106 547.56 805.092 536.876 814.164C531.444 818.776 522.564 820.324 516.167 816.829C509.768 813.33 507.54 804.517 512.526 799.517C514.259 797.783 516.593 796.631 518.873 795.507C524.253 792.851 529.944 789.845 532.487 784.851C532.676 784.473 532.831 784.082 532.962 783.683C534.593 778.784 531.878 772.457 526.231 771.905C522.52 771.541 519.298 773.62 516.103 775.701C512.727 777.9 509.375 780.099 505.507 779.413C502.37 778.855 500.092 776.5 498.074 774.29C491.497 767.099 484.504 758.412 486.947 749.391C481.017 750.49 476.68 755.334 474.967 760.518C471.988 769.533 474.749 778.207 471.886 785.803C470.438 789.637 467.581 793.201 461.776 796.385C457.223 798.88 450.795 799.23 446.854 796.013C441.3 791.489 440.711 780.988 433.2 781.333C431.612 781.407 430.124 782.069 428.839 782.903C416.621 790.835 423.029 809.922 412.499 819.589C407.571 824.115 400.106 825.404 393.136 826.47C385.44 827.649 377.745 828.826 370.047 830.004C365.503 830.699 360.846 831.397 356.311 830.65C353.18 830.138 350.238 828.954 347.156 828.237C332.593 824.832 317.791 832.152 306.527 841.35C305.691 842.031 304.873 842.723 304.078 843.421C301.418 845.762 298.806 848.24 295.5 849.791C287.237 853.667 273.764 853.087 272.371 861.32C267.706 862.614 263.578 859.592 259.451 856.569C255.319 853.544 251.188 850.516 246.521 851.826C243.572 852.65 241.591 855.046 239.817 857.302C237.647 860.062 235.478 862.825 233.309 865.585C235.613 868.894 237.808 872.248 239.257 875.913C241.318 881.124 241.768 886.712 242.368 892.215C244.653 913.263 249.357 934.103 256.38 954.298C264.777 934.163 270.011 912.979 271.885 891.562C272.418 885.456 273.504 878.175 279.69 875.536C283.319 883.26 284.947 891.726 284.414 900.087C287.301 901.863 289.817 897.396 289.814 894.269C289.797 884.242 289.779 874.215 289.765 864.187C297.434 863.317 301.552 871.87 303.079 878.632C307.663 898.95 312.248 919.264 316.829 939.582C317.56 942.815 320.84 947.014 323.738 944.962C324.478 944.44 324.857 943.619 325.206 942.837C333.449 924.322 336.56 908.816 337.55 889.209C338.313 874.075 349.751 869.562 348.007 888.55C346.772 901.988 357.636 919.035 362.337 931.598C364.391 937.087 366.464 942.675 366.619 948.463C366.77 954.259 364.985 960.003 365.285 965.794C365.838 976.407 373.175 985.603 378.884 994.927C381.223 998.748 383.297 1002.96 384.552 1007.24C393.378 1003.76 402.107 1000.63 410.583 1000.44C411.089 998.696 411.657 996.968 412.359 995.272C419.091 979.033 436.462 968.617 452.621 959.027C455.205 957.492 457.882 955.857 459.341 953.417C461.118 950.444 460.754 946.871 461.042 943.512C462.05 931.745 471.367 921.718 473.558 910.079C475.588 899.319 471.437 887.672 476.316 877.664C477.994 874.22 480.668 871.195 482.071 867.658C486.365 856.829 477.81 844.914 480.123 833.62C484.428 833.372 487.917 837.007 488.963 840.743C490.011 844.474 489.376 848.402 489.639 852.239C490.475 864.43 500.011 874.493 506.555 885.216C512.792 895.44 516.462 906.723 519.896 917.949C521.728 923.944 523.627 930.167 528.121 934.915C535.54 942.766 549.689 943.548 548.958 930.834C548.478 922.601 547.997 914.382 547.519 906.16C547.304 902.451 550.54 897.024 553.671 899.469C556.121 913.537 558.57 927.604 561.02 941.672C561.515 944.522 562.106 947.552 564.299 949.67C566.493 951.789 570.876 952.336 572.761 949.992C573.556 933.739 574.351 917.486 575.146 901.233C575.356 896.939 577.342 891.176 582.131 891.66C583.8 891.832 585.207 892.82 586.412 893.862C596.053 902.196 601.136 917.227 614.543 917.919C618.828 918.143 623.086 916.688 627.271 915.235C632.91 913.277 638.418 911.318 643.684 913.463C646.457 914.592 648.534 916.704 650.777 918.548C657.004 923.668 665.515 927.032 673.903 925.988C682.292 924.945 690.019 918.693 690.348 911.143C690.477 908.181 689.533 905.279 688.892 902.369C684.398 881.983 694.385 862.237 699.448 842.753C704.096 824.862 705.64 805.904 708.526 787.704C708.952 785.015 709.738 781.883 712.528 780.797C716.618 779.208 720.722 783.795 720.53 787.772C720.334 791.752 717.812 795.357 717.171 799.293C716.417 803.929 718.307 808.53 719.819 813.016C727.575 836.019 727.902 865.35 728.009 889.291C728.03 894.149 728.202 899.693 732.335 902.861C739.305 908.2 750.015 901.854 754.64 894.775C761.182 884.764 763.48 873.06 765.667 861.638C770.718 835.253 777.807 810.948 786.677 785.406C791.369 771.91 800.404 785.053 802.629 792.613C806.719 806.511 807.61 821.459 809.285 835.724C810.933 849.769 811.615 865.09 821.885 875.837C836.681 869.22 838.883 854.236 844.933 841.238C846.975 836.856 849.014 832.477 851.053 828.098C852.655 824.657 854.268 821.18 855.034 817.518C855.701 814.323 855.707 811.046 855.943 807.802C856.441 800.994 856.636 787.099 867.431 791.246C874.861 794.101 875.499 809.268 876.967 815.119C877.835 818.585 879.175 822.562 882.882 823.861C887.257 825.39 892.054 821.946 893.7 818.019C895.346 814.096 895.008 809.744 895.963 805.641C898.686 793.926 911.307 785.907 915.484 774.541C918.606 766.04 916.675 756.532 920.022 748.1C923.433 739.503 932.037 732.812 933.79 723.832C935.488 715.142 930.336 706.452 930.822 697.645C931.344 688.126 938.366 679.611 938.846 670.087C939.394 659.349 932.517 646.104 941.887 639.346C952.335 653.118 957.438 670.052 956.136 686.641C955.51 694.595 953.494 702.774 956.116 710.397C958.83 718.299 966.232 724.524 968.244 732.593C969.666 738.305 968.206 744.237 968.075 750.085C967.624 770.529 983.367 789.361 982.024 809.772C981.657 815.365 980.006 821.025 981.348 826.498C982.694 831.971 988.671 837.176 994.685 835.557C992.632 823.793 1007.37 814.293 1007.57 802.386C1007.63 798.894 1006.4 795.472 1006.25 791.979C1005.96 784.952 1009.99 778.445 1012.18 771.694C1018.3 752.758 1010.22 730.635 1021.66 713.775C1024.81 716.299 1025.9 720.23 1026.84 723.917C1031.26 741.33 1035.68 758.743 1040.09 776.155C1041.17 780.395 1042.26 784.673 1044.32 788.612C1045.85 791.538 1047.88 794.257 1049.4 797.17C1050.44 796.084 1051.5 795.009 1052.78 794.159C1054.45 793.043 1056.42 792.351 1058.36 791.672C1062.69 790.16 1067.02 788.645 1071.36 787.129C1073.43 786.407 1075.59 785.622 1077 784.088C1079 781.913 1078.97 778.847 1079.49 776.076C1080.01 773.305 1081.81 770.181 1084.95 769.993C1086.77 769.883 1088.44 770.83 1090.22 771.204C1091.97 771.568 1093.79 771.377 1095.56 771.183C1101.85 770.496 1108.14 769.809 1114.43 769.123C1115.54 769.003 1116.72 768.858 1117.57 768.212C1118.58 767.463 1118.89 766.232 1119.31 765.127C1122.04 757.941 1131.4 753.948 1139.85 754.738C1142.38 754.976 1144.8 755.589 1147.13 756.434C1150.12 752.066 1153.74 747.834 1156.73 743.57C1173.27 719.957 1171.43 690.161 1173.13 662.357C1174.42 641.411 1178.01 620.639 1181.61 599.911C1182.2 596.525 1183.19 592.616 1186.67 591.15C1193.75 588.155 1198.58 598.046 1198.33 605.034C1197.71 621.616 1194.58 638.498 1199.03 654.608C1202.22 666.184 1209.23 676.876 1210.86 688.709C1211.63 694.354 1211.17 700.2 1213.13 705.613C1214.97 710.695 1218.79 714.973 1222.27 719.316C1235.5 735.829 1244.5 754.943 1248.86 774.859C1252.74 771.273 1256.19 767.32 1259.04 763.04C1260.53 760.794 1262.03 758.338 1264.64 757.156C1267.66 755.791 1271.34 756.448 1274.92 757.104C1279.23 757.897 1283.4 758.688 1286.07 755.939C1289.29 747.293 1271.33 740.003 1275.77 731.8C1279.04 725.744 1290.82 727.826 1294.83 722.134C1296.63 719.587 1296.19 716.338 1296.4 713.337C1297.13 702.683 1320.34 692.12 1317.94 684.395C1316.48 679.674 1308.33 679.929 1304.96 676.066C1301.38 671.975 1304.97 666.137 1308.51 662.018C1314.17 655.434 1319.82 648.848 1325.48 642.261C1331.53 635.218 1338.4 636.241 1345.32 631.432C1351.06 627.444 1352.38 617.329 1361.46 617.491C1366.81 617.586 1370.8 622.379 1376.11 622.953C1382.92 623.686 1388.21 615.152 1383.89 610.398C1382.67 609.055 1380.92 608.04 1380.19 606.44C1378.47 602.685 1383.18 599.249 1387.2 597.348C1397.81 592.329 1408.44 587.31 1419.06 582.293C1415.92 576.372 1409.94 572.14 1404.61 567.638C1399.29 563.136 1394.19 557.629 1393.8 551.092C1393.41 544.555 1400.12 537.536 1407.21 539.243C1401.77 535.296 1404.87 527.142 1410.11 522.985C1415.34 518.824 1422.35 516.177 1425.88 510.774C1429.41 505.367 1425.28 496.034 1418.51 497.67C1415.33 498.438 1413.13 501.354 1409.88 501.792C1408.59 501.964 1407.3 501.723 1406.01 501.48C1404.77 501.247 1403.53 501.015 1402.29 501.152C1396.64 501.775 1394.94 509.032 1389.6 510.785C1387.62 511.434 1385.32 511.278 1383.07 511.122C1379.85 510.897 1376.75 510.673 1374.95 512.837C1373.48 514.596 1373.88 517.049 1373.29 519.18C1372 523.906 1366.07 526.417 1360.64 526.891C1358.39 527.085 1356.11 527.049 1353.84 527.014C1350.64 526.962 1347.44 526.91 1344.32 527.511C1325.63 531.122 1315.85 556.278 1297.02 553.324C1299.74 548.652 1302.47 543.981 1305.2 539.309C1301.12 536.699 1295.55 538.682 1290.56 539.186C1285.57 539.683 1278.95 535.999 1281.35 532.066C1282.12 530.816 1283.61 530.072 1285.08 529.516C1290.56 527.465 1296.66 527.172 1302.31 525.556C1307.97 523.939 1313.63 520.307 1314.38 515.052C1307.45 514.005 1300.53 512.954 1293.6 511.904C1292.58 507.889 1297.3 504.409 1301.84 503.676C1304 503.329 1306.2 503.345 1308.41 503.359C1310.84 503.378 1313.27 503.395 1315.63 502.924C1328.8 500.301 1333.58 484.609 1346.06 480.049C1350.67 478.359 1355.84 478.414 1360.68 477.322C1365.51 476.231 1370.51 473.329 1371.1 468.908C1371.48 466.015 1369.86 463.099 1370.41 460.224C1371.43 454.904 1378.98 452.872 1384.99 453.449Z" fill="#5B8045"/>
<path d="M878.022 270.301C880.513 271.447 883.588 271.327 885.98 272.629C890.273 274.959 890.355 280.394 889.921 284.861C889.23 292.014 888.534 299.172 887.841 306.325C887.349 311.407 886.903 316.743 889.23 321.401C891.558 326.06 897.671 329.637 903.013 327.816C903.211 331.85 903.409 335.885 903.607 339.919C907.842 339.81 912.077 339.7 916.312 339.588C920.221 336.153 919.505 330.307 917.285 325.832C915.066 321.358 911.614 317.263 910.732 312.432C909.599 306.223 912.907 300.127 916.123 294.527C919.478 296.459 924.29 293.822 925.243 290.362C926.198 286.904 924.424 283.31 922.205 280.351C917.804 274.475 911.585 269.88 906.634 264.366C901.679 258.851 897.907 251.723 899.745 244.85C894.31 243.37 894.109 236.764 892.233 231.98C889.038 223.826 878.66 218.919 876.461 210.508C876.126 209.223 875.931 207.787 874.827 206.909C874.087 206.321 873.068 206.107 872.083 206.02C844.491 203.547 869.214 228.889 872.622 233.681C879.208 242.935 867.778 265.599 878.022 270.301Z" fill="#7F989D"/>
<path d="M433.689 128.257C386.783 140.91 334.745 138.709 290.133 156.269C432.906 142.779 574.17 118.074 711.492 82.5864C690.273 88.0706 658.332 83.0816 635.386 85.8934C612.871 88.6506 591.046 94.7501 568.485 96.8508C518.64 101.487 481.131 115.459 433.689 128.257Z" fill="white"/>
<path d="M-93.5317 557.911C-40.1023 550.156 13.2578 542.041 66.6963 534.106C175.433 517.998 284.166 501.887 392.903 485.776C409.374 483.336 429.273 478.227 432.465 464.433C379.886 471.919 327.306 479.403 274.723 486.887C268.08 487.833 261.097 488.76 254.735 486.892C238.956 482.261 235.707 463.957 222.001 455.915C207.044 447.141 186.161 453.886 171.692 463.221C157.224 472.559 143.932 484.753 126.004 487.598C87.1794 493.758 55.6793 453.205 16.3127 456.052C-9.77405 457.939 -58.318 479.709 -76.1296 495.355C-87.7666 505.574 -97.6106 517.429 -111.24 525.73C-123.958 533.477 -139.188 537.642 -154.138 541.696C-172.567 546.688 -192.495 554.645 -211.576 557.254C-233.413 560.244 -250.996 555.446 -269.248 568.48C-272.235 570.611 -275.311 573.381 -274.975 576.661C-274.681 579.519 -271.717 581.79 -268.459 582.651C-265.202 583.516 -261.689 583.247 -258.297 582.906C-203.225 577.353 -148.251 565.854 -93.5317 557.911Z" fill="white"/>
<path d="M196.39 678.9C173.725 667.064 158.457 676.772 136.371 665.973C124.061 659.955 109.914 657.392 95.9187 658.013C90.6179 661.777 85.0544 665.844 85.6139 671.577C85.985 675.393 89.1901 678.563 90.0173 682.324C91.9344 691.05 80.907 697.527 71.2032 699.554C61.4958 701.583 50.0886 702.598 44.5612 710C43.4439 711.496 42.6374 713.26 42.785 715.052C43.1378 719.379 48.8268 721.906 53.6712 721.545C58.5147 721.181 62.8793 718.911 67.5076 717.579C80.2563 713.916 94.458 717.675 105.591 724.321C116.723 730.968 125.487 740.238 134.643 748.958C137.542 751.718 140.707 754.549 144.807 755.509C148.908 756.466 154.109 754.705 154.992 751.004C153.633 744.847 142.952 746.433 137.089 742.965C130.15 738.857 132.757 728.427 139.615 724.209C146.472 719.991 155.366 719.937 163.659 719.258C197.67 716.477 229.595 699.644 249.872 675.234C232.46 682.524 213.541 687.855 196.39 678.9Z" fill="#A5A8B6"/>
<path d="M627.56 578.004C612.327 577.336 600.845 577.052 588.134 585.72C575.869 594.087 571.829 615.001 555.02 617.591C535.12 620.655 520.927 591.732 501.654 597.115C490.51 600.231 486.945 613.007 477.426 619.044C457.894 631.426 431.877 608.874 408.256 612.476C395.513 614.418 383.92 624.022 371.37 621.246C358.862 618.475 352.484 604.547 339.918 602C321.033 598.176 310.247 620.967 293.257 629.26C262.122 644.46 221.334 606.801 190.614 622.663C177.102 629.637 171.089 644.999 157.42 651.73C141.994 659.323 124.879 653.284 107.499 647.006C105.163 650.3 102.329 653.306 98.9784 655.811C98.0012 656.541 96.9646 657.272 95.9189 658.013C109.915 657.392 124.062 659.955 136.371 665.973C158.457 676.772 173.725 667.064 196.391 678.9C213.541 687.855 232.46 682.524 249.872 675.234C256.586 672.425 263.077 669.326 269.154 666.637C286.497 658.976 304.981 653.371 323.969 650.018C336.059 647.884 349.347 646.823 360.045 652.288C367.102 655.893 372.17 661.933 378.779 666.159C382.659 668.64 386.949 670.398 391.441 671.799C407.691 676.867 426.763 676.919 440.161 686.632C450.504 694.127 455.721 706.299 466.527 713.257C483.478 724.168 510.01 719.701 524.003 733.553C528.902 738.405 531.488 744.934 536.871 749.36C543.576 754.88 552.652 755.61 561.422 753.356C569.973 751.163 578.237 746.135 583.736 739.896C585.964 737.374 587.895 734.674 589.721 731.914C597.026 720.867 601.946 708.429 610.707 698.216C616.602 691.345 624.12 685.664 629.846 678.678C652.242 651.339 645.633 612.977 653.832 580.736C644.823 579.505 635.986 578.376 627.56 578.004Z" fill="white"/>
<path d="M465.672 780.247C452.455 760.586 441.107 739.33 422.297 723.703C407.643 711.523 388.845 703.364 369.056 700.588C365.089 700.03 360.767 699.554 357.9 697.043C352.5 692.311 356.217 683.552 362.631 679.964C369.044 676.378 376.993 676.022 384.283 674.198C386.742 673.582 389.124 672.762 391.437 671.799C386.946 670.398 382.658 668.64 378.779 666.156C372.17 661.933 367.102 655.893 360.044 652.288C349.346 646.823 336.058 647.884 323.968 650.018C304.98 653.371 286.496 658.976 269.153 666.637C263.076 669.326 256.586 672.423 249.87 675.234C229.594 699.644 197.67 716.477 163.659 719.256C155.365 719.937 146.471 719.992 139.614 724.209C132.757 728.427 130.149 738.857 137.088 742.965C142.951 746.433 153.634 744.847 154.991 751.004C154.108 754.702 148.907 756.466 144.807 755.509C140.706 754.549 137.541 751.718 134.642 748.958C125.486 740.238 116.722 730.968 105.59 724.321C94.4586 717.675 80.2558 713.917 67.507 717.579C62.8787 718.911 58.5141 721.181 53.6706 721.542C48.8262 721.906 43.1372 719.379 42.7844 715.054C42.6368 713.26 43.4433 711.496 44.5618 710C50.088 702.598 61.4952 701.583 71.2026 699.554C80.9065 697.527 91.9339 691.05 90.0167 682.324C89.1895 678.563 85.9844 675.393 85.6133 671.577C85.0538 665.844 90.6173 661.777 95.9181 658.013C96.9638 657.272 98.0004 656.542 98.9776 655.811C102.328 653.306 105.163 650.3 107.498 647.006C91.0405 641.06 74.3474 634.897 58.6303 639.895C42.7629 644.939 30.2987 660.918 13.7328 658.194C5.82995 656.894 -0.321942 651.449 -7.63888 648.481C-10.2979 647.406 -13.0182 646.711 -15.7671 646.309V661.769V771.929C-14.569 774.349 -13.6349 776.88 -13.0319 779.503C-6.68545 783.179 -1.35958 776.68 -0.327622 771.899C29.4386 766.666 13.4348 799.177 28.9379 803.248C32.3865 804.15 35.8852 801.467 37.0444 798.442C38.2016 795.416 37.7875 792.12 37.998 788.928C39.2688 769.73 62.0571 757.511 69.7666 739.546C70.9227 736.854 71.7781 733.966 73.8514 731.753C75.9255 729.54 79.7437 728.263 82.447 729.847C83.7087 730.582 84.5042 731.794 85.2528 732.962C92.5572 744.346 99.9117 755.968 104.734 768.28C110.394 768.912 116.162 771.338 120.51 774.664C128.914 781.095 134.486 790.091 142.998 796.407C152.579 803.513 165.19 806.713 174.851 813.737C176.956 815.264 179.093 817.044 181.789 817.329C189.218 818.111 191.178 807.416 186.294 802.359C181.41 797.307 173.514 795.105 168.878 789.869C164.382 784.793 163.905 777.17 167.743 771.68C171.58 766.187 179.461 763.211 186.553 764.576C198.805 766.934 209.284 780.463 220.526 775.517C223.872 774.046 226.174 771.138 229.419 769.497C233.29 767.536 237.786 767.643 242.329 767.752C245.753 767.831 249.204 767.911 252.434 767.109C257.559 765.835 261.629 762.47 265.898 759.639C278.801 751.075 295.997 746.8 311.37 751.001C326.749 755.205 338.968 769.106 337.043 783.348C309.256 782.681 283.496 805.231 283.714 830.023C283.732 831.815 283.907 833.713 285.078 835.171C286.659 837.132 289.563 837.742 292.185 838.366C297.171 839.558 301.96 841.35 306.448 843.617C317.711 834.419 332.514 827.099 347.077 830.504C350.159 831.221 353.1 832.405 356.231 832.917C360.767 833.664 365.424 832.966 369.968 832.271C377.666 831.093 385.361 829.916 393.056 828.737C400.026 827.671 407.492 826.382 412.42 821.856C422.949 812.189 416.541 793.102 428.76 785.17C430.045 784.336 431.533 783.674 433.12 783.6C440.632 783.255 441.221 793.756 446.775 798.28C450.716 801.497 457.144 801.147 461.697 798.652C467.502 795.468 470.359 791.904 471.807 788.07C469.485 785.652 467.464 782.908 465.672 780.247Z" fill="#B4BEC8"/>
<path d="M378.572 994.858C372.863 985.533 365.526 976.337 364.973 965.724C364.672 959.934 366.458 954.19 366.307 948.394C366.152 942.606 364.078 937.018 362.025 931.528C357.324 918.965 346.46 901.919 347.695 888.48C349.439 869.492 338.001 874.005 337.238 889.14C336.248 908.746 333.137 924.252 324.894 942.767C324.545 943.55 324.166 944.37 323.426 944.893C320.528 946.944 317.248 942.745 316.517 939.512C311.936 919.195 307.351 898.88 302.766 878.562C301.24 871.801 297.122 863.248 289.453 864.118C289.467 874.145 289.485 884.172 289.502 894.2C289.505 897.326 286.988 901.793 284.102 900.018C284.635 891.656 283.007 883.191 279.378 875.466C273.191 878.106 272.106 885.387 271.573 891.492C269.698 912.909 264.465 934.094 256.068 954.228C249.045 934.034 244.341 913.194 242.055 892.146C241.456 886.642 241.006 881.054 238.945 875.844C237.496 872.178 235.3 868.825 232.996 865.515C231.598 863.508 230.162 861.519 228.827 859.487C223.74 851.746 220.074 843.267 218.018 834.484C212.946 834.62 211.143 840.463 210.784 844.973C209.808 857.225 208.83 869.47 207.855 881.719C207.455 886.738 206.969 891.954 204.601 896.448C204.208 897.198 203.776 897.931 203.27 898.634C199.716 903.568 192.127 906.722 186.357 903.91C179.824 900.724 179.451 892.715 178.768 886.104C178.087 879.492 173.866 871.33 166.469 872.08C168.325 887.05 169.504 904.033 158.206 915.223C156.531 916.881 154.46 918.421 151.976 918.694C146.825 919.263 143.01 914.214 142.366 909.619C141.719 905.023 142.851 900.22 141.28 895.808C139.891 891.9 136.546 888.79 134.671 885.048C131.713 879.145 132.674 872.37 132.921 865.906C133.431 852.621 130.622 839.24 124.755 827.016C124.572 826.636 124.372 826.259 124.182 825.879C120.114 817.695 114.862 809.918 112.331 801.264C110.361 794.53 110.12 787.5 108.838 780.64C107.898 775.613 106.374 770.73 104.501 765.943C99.6788 753.632 92.3243 742.01 85.0198 730.626C84.2713 729.458 83.4758 728.246 82.2141 727.51C79.5108 725.926 75.6926 727.204 73.6185 729.417C71.5452 731.629 70.6898 734.518 69.5337 737.209C61.8241 755.175 39.0359 767.393 37.7651 786.592C37.5545 789.784 37.9687 793.08 36.8115 796.105C35.6523 799.13 32.1536 801.814 28.705 800.911C13.2019 796.841 29.2056 764.33 -0.560533 769.562C-1.59249 774.343 -6.91836 780.842 -13.2648 777.166C-13.8678 774.543 -14.8019 772.013 -16 769.592V1085.06C-10.1303 1082.55 -4.06143 1080.31 1.96986 1078.12C6.98514 1076.29 12.1654 1074.44 17.6312 1074.36C30.7246 1074.18 40.5365 1083.75 49.8903 1091.43C59.2426 1099.12 73.9712 1105.8 84.6878 1099.49C86.0154 1098.71 87.1123 1097.76 88.1224 1096.74C92.5415 1092.29 94.4473 1086 98.2201 1080.95C112.483 1061.83 148.375 1065.46 168.656 1050.66C180.766 1041.82 190.806 1025.57 206.333 1028.99C218.765 1031.72 226.266 1046.97 238.72 1044.31C246.424 1042.67 249.415 1035.12 253.861 1029.59C264.448 1016.43 286.138 1013.56 305.021 1014.69C323.907 1015.82 343.256 1019.65 361.439 1015.24C369.042 1013.39 376.676 1010.16 384.24 1007.17C382.984 1002.89 380.911 998.679 378.572 994.858Z" fill="#416437"/>
<path d="M-54.854 593.707C-58.3812 594.533 -62.7068 597.837 -59.9022 599.815C15.8091 590.014 91.1621 578.264 166.016 564.579C157.09 559.36 145.146 560.43 134.379 561.718C69.4196 569.483 8.75615 579.768 -54.854 593.707Z" fill="white"/>
<path d="M1145.8 269.899C1141.01 263.211 1133.27 264.606 1126.19 265.246C1120.6 265.752 1114.65 267.153 1113.61 272.889C1112.69 277.995 1118.58 279.768 1122.01 282.522C1125.37 285.219 1135.23 283.833 1130.41 291.393C1126.7 297.227 1120.46 296.707 1114.51 293.573C1109.92 291.152 1105.27 290.594 1100.07 291.83C1096.29 292.728 1091.03 293.83 1089.33 290.427C1081.8 275.329 1065.58 277.087 1050.94 275.567C1043.37 271.929 1032.69 278.901 1026.53 270.495C1014.27 271.278 1001.67 268.761 993.999 282.014C990.539 287.993 977.697 284.101 973.998 278.967C970.744 274.456 965.542 273.961 960.833 270.178C969.081 269.114 975.973 268.225 982.867 267.336C985.634 264.018 990.006 261.948 994.224 262.194C1009.68 263.086 1022.72 256.767 1036.66 253.124C1046.32 245.282 1053.4 233.244 1071.1 238.597C1074.03 239.48 1076.12 237.325 1077.87 235.347C1086.05 226.108 1100.29 221.572 1105.21 209.636C1109.75 198.599 1116.97 218.257 1120.78 209.264C1123.77 202.201 1129.28 198.645 1135.3 202.973C1146 210.678 1162.52 214.992 1162.65 230.328C1163.63 232.027 1164.54 233.753 1165.58 235.421C1171.2 244.42 1166.48 253.165 1160.42 259.092C1152.96 266.403 1150.86 251.406 1141.56 254.221C1141 258.444 1146.47 260.241 1148.88 263.231C1151.93 267.027 1151.69 269.251 1145.8 269.899Z" fill="#5D8046"/>
<path d="M1366.74 6.91133C1367.84 12.9289 1373.26 17.6445 1378.41 21.9252C1372.98 25.8996 1365.6 27.9374 1358.43 27.4505C1355.08 36.1104 1368.07 45.5196 1377.78 41.4659C1377.95 44.6963 1378.12 47.9239 1378.29 51.1488C1369.97 53.337 1361.31 49.6225 1353.23 46.879C1345.15 44.1383 1334.65 42.7269 1328.78 48.1345C1321.74 54.6143 1327.49 65.4624 1335.92 70.632C1344.36 75.8044 1355.08 78.2361 1362.5 84.4151C1376.91 96.4311 1373.15 116.896 1382.32 132.118C1390.3 145.354 1408.87 153.461 1426.34 151.339C1423.26 143.387 1408.64 144.14 1402.25 137.72C1398.69 134.139 1398.44 129.071 1398.36 124.405C1398.23 116.44 1398.09 108.472 1397.96 100.504C1397.86 94.9567 1398.01 88.8462 1402.38 84.6941C1408.45 78.9363 1419.13 79.8281 1428.19 78.7203C1432.3 78.2197 1436.22 77.2323 1440 75.9303V-56.5604C1436.92 -54.8974 1434.01 -53.0183 1431.45 -50.7508C1424 -44.1643 1418.94 -34.3064 1408.79 -31.9513C1402.1 -30.4032 1394.26 -32.5311 1388.58 -29.0191C1383.65 -25.972 1382.74 -18.8932 1386.77 -14.9298C1390.79 -10.9691 1398.78 -11.0839 1402.66 -15.1622C1404.93 -17.5446 1405.85 -20.8981 1408.6 -22.8292C1413.42 -26.2018 1421.33 -22.6048 1422.72 -17.2875C1424.11 -11.9729 1420.53 -6.45044 1415.66 -3.14624C1402.85 5.54916 1384.85 1.75536 1368.77 0.962128C1368.43 0.942978 1368.08 0.956696 1367.73 0.943024C1366.79 2.83035 1366.39 4.92825 1366.74 6.91133Z" fill="#AFB496"/>
<path d="M1428.19 78.7206C1419.13 79.8283 1408.45 78.9366 1402.38 84.6943C1398 88.8465 1397.86 94.957 1397.96 100.504C1398.09 108.472 1398.23 116.44 1398.36 124.405C1398.44 129.071 1398.69 134.14 1402.25 137.72C1408.64 144.14 1423.26 143.388 1426.34 151.339C1408.87 153.462 1390.29 145.354 1382.32 132.118C1373.15 116.897 1376.91 96.4313 1362.5 84.4153C1355.08 78.2364 1344.36 75.8047 1335.92 70.6323C1327.49 65.4626 1321.74 54.6146 1328.78 48.1347C1334.65 42.7271 1345.15 44.1385 1353.23 46.8793C1361.31 49.6228 1369.97 53.3372 1378.29 51.149C1378.12 47.9241 1377.95 44.6965 1377.78 41.4662C1368.07 45.5198 1355.08 36.1106 1358.43 27.4508C1365.6 27.9377 1372.98 25.8998 1378.41 21.9255C1373.26 17.6448 1367.84 12.9291 1366.74 6.91156C1366.38 4.9285 1366.79 2.8306 1367.73 0.943268C1358.56 0.576752 1349.32 1.31525 1340.38 3.18344C1338.55 -0.703369 1343.84 -4.00217 1347.89 -6.1767C1351.94 -8.35123 1355.42 -14.1089 1351.24 -16.0865C1339.86 -17.1396 1331.22 -7.27625 1326.1 1.86227C1320.99 11.0008 1315.65 21.6464 1304.71 24.6525C1296.66 26.8598 1288.21 23.7144 1282.29 18.2083C1282.82 22.6148 1283.39 26.9885 1281.56 31.0257C1279.76 34.9891 1275.95 37.8775 1272.67 40.993C1257.88 55.0468 1246.46 76.4995 1239.26 94.4619C1234.81 105.534 1232.91 113.218 1225.04 118.94C1227.28 123.954 1229.7 128.929 1230.06 134.276C1230.53 141.194 1225.92 149.151 1218.18 149.764C1215.17 150.002 1212.12 149.102 1209.16 149.616C1200.71 151.079 1199.73 161.402 1200.78 169.014C1201.92 177.245 1203.05 185.481 1204.19 193.711C1204.47 195.702 1204.72 197.822 1203.72 199.619C1202.34 202.086 1199.29 202.83 1196.16 202.478C1196.18 208.419 1194.86 214.57 1192.75 220.093C1187.65 233.432 1179.15 246.286 1179.42 260.38C1179.53 266.557 1181.34 272.897 1179.33 278.811C1174.79 292.167 1152.61 298.759 1154.11 312.651C1166.73 309.046 1176.8 324.23 1174.37 335.846C1171.93 347.46 1162.95 357.351 1160.54 368.973C1158.03 381.123 1162.95 393.142 1167.48 405.01C1172.98 400.749 1178.37 397.108 1184.79 399.195C1189.3 400.661 1192.02 404.625 1195.1 407.915C1202.07 415.399 1219.95 419.603 1213.68 432.24C1210.82 437.987 1205.46 443.794 1207.68 449.756C1209.81 455.517 1218.04 457.555 1224.76 456.616C1231.48 455.676 1237.72 452.719 1244.48 452.043C1256.98 441.961 1275.47 440.659 1292.27 441.928C1296.7 442.264 1301.48 442.672 1305.28 440.612C1309.04 438.567 1310.9 434.567 1314.3 432.062C1317.94 429.379 1322.86 428.711 1327.37 427.475C1337.81 424.611 1346.62 418.413 1355.16 412.346C1357.2 410.891 1359.3 409.392 1360.63 407.387C1362.39 404.759 1363.07 401.11 1366.25 399.966C1369.88 398.664 1373.77 401.739 1377.66 401.391C1383.64 400.853 1385.42 393.199 1390.98 391.145C1396.39 389.14 1403.21 393.246 1408.2 390.519C1410.7 389.157 1411.91 386.438 1414.31 384.944C1416.43 383.626 1419.16 383.445 1421.74 383.306C1427.82 382.983 1433.91 382.66 1440 382.335V75.9305C1436.22 77.2325 1432.3 78.22 1428.19 78.7206Z" fill="#7D9799"/>
<path d="M1265.22 148.768C1267.13 158.147 1262.61 167.496 1260.82 176.892C1256.27 200.637 1269.22 224.226 1284.41 244.609C1299.61 264.995 1317.7 284.519 1325.35 307.698C1315.24 306.382 1309.05 297.706 1305.8 289.558C1302.56 281.406 1300.48 272.366 1293.11 266.406C1285.33 260.101 1273.33 258.89 1262.69 260.501C1252.04 262.114 1242.17 266.127 1231.94 269.065C1224.48 271.209 1213.82 271.587 1211.19 265.345C1208.69 259.429 1216.44 254.051 1223.53 252.052C1230.61 250.055 1239.15 248.559 1242.3 242.864C1245.21 237.607 1241.89 231.573 1239.4 226.168C1234.45 215.402 1232.76 203.585 1234.56 192.144C1235.79 184.277 1238.63 176.411 1237.33 168.552C1236.28 162.212 1232.58 156.306 1231.9 149.919C1229.72 129.175 1261.57 130.797 1265.22 148.768Z" fill="#AFB496"/>
<path d="M191.163 886.211C189.768 884.986 187.86 884.319 186.431 883.126C180.797 878.421 175.522 873.252 172.884 868.131C169.613 861.777 177.788 858.864 163.93 857.177C155.776 856.184 148.365 851.246 144.98 844.559C143.791 842.209 142.959 839.534 140.678 837.95C137.221 835.552 132.294 836.763 127.925 837.053C126.542 837.146 125.158 837.108 123.785 836.977C123.975 837.357 124.175 837.734 124.358 838.114C130.225 850.338 133.034 863.719 132.524 877.005C132.277 883.468 131.316 890.243 134.274 896.146C136.149 899.888 139.494 902.998 140.883 906.906C142.454 911.318 141.322 916.121 141.969 920.717C142.613 925.312 146.428 930.361 151.579 929.792C154.063 929.519 156.134 927.979 157.809 926.321C169.107 915.131 167.928 898.148 166.072 883.178C173.469 882.429 177.69 890.591 178.371 897.202C179.054 903.813 179.427 911.822 185.96 915.008C191.73 917.82 199.319 914.666 202.873 909.732C203.379 909.029 203.811 908.296 204.204 907.546C201.161 904.149 197.179 901.305 195.473 897.251C193.916 893.553 194.318 888.982 191.163 886.211Z" fill="#5B8045"/>
<path d="M245.709 863.458C250.375 862.148 254.506 865.176 258.638 868.201C262.765 871.224 266.893 874.246 271.559 872.952C272.951 864.719 286.424 865.299 294.687 861.423C297.993 859.872 300.605 857.394 303.265 855.053C304.06 854.355 306.164 844.402 307 843.721C302.512 841.454 303.487 841.627 298.5 840.435C295.879 839.811 294.687 838.087 290 838.087C288.829 836.629 284.361 836.122 284.344 834.331C284.126 809.538 309.213 782.483 337 783.15C338.925 768.908 325.879 754.956 310.5 750.752C295.127 746.55 277.403 752.048 264.5 760.612C260.231 763.443 258.125 765.441 253 766.716C249.77 767.518 244.924 767.734 241.5 767.655C236.957 767.546 232.871 768.042 229 770.003C225.755 771.644 224.346 774.166 221 775.637C209.758 780.583 197.813 766.726 185.561 764.368C178.469 763.003 170.837 767.328 167 772.82C163.162 778.31 163.648 794.158 168.144 799.234C172.78 804.469 180.676 806.671 185.561 811.723C190.444 816.781 183 817.585 181.5 817.427C178.805 817.142 179.81 818.188 177.5 816.018C169.5 808.506 158 805.688 147 799.234C138.488 792.918 133.904 786.294 125.5 779.863C124.681 775.935 111.16 768.757 105.5 768.125C107.373 772.911 107.397 787.314 108.337 792.341C109.619 799.201 109.861 806.231 111.83 812.965C114.362 821.62 119.613 829.396 123.681 837.58C125.054 837.711 126.438 837.749 127.821 837.656C132.19 837.366 137.117 836.155 140.575 838.554C142.856 840.137 143.688 842.812 144.877 845.162C148.261 851.85 155.673 856.787 163.826 857.78C177.684 859.467 169.509 862.38 172.78 868.734C175.419 873.855 180.693 879.025 186.327 883.729C187.757 884.922 189.664 885.589 191.059 886.815C194.214 889.585 193.812 894.156 195.369 897.854C197.075 901.908 201.057 904.752 204.101 908.15C206.468 903.656 206.954 898.439 207.355 893.42C208.33 881.172 209.307 868.926 210.283 856.675C210.643 852.164 212.445 846.322 217.517 846.185C219.573 854.968 223.239 863.447 228.326 871.188C229.662 873.22 231.097 875.209 232.496 877.217C234.665 874.457 236.834 871.694 239.004 868.934C240.778 866.678 242.759 864.282 245.709 863.458Z" fill="#A4A9BA"/>
<path d="M486.567 751.859C484.123 760.88 491.116 769.567 497.693 776.758C499.712 778.968 501.989 781.323 505.126 781.881C512.656 783.219 518.216 773.623 525.85 774.373C531.498 774.925 534.212 781.252 532.581 786.151C542.793 786.345 551.895 779.4 556.279 771.131C559.194 765.634 560.655 759.848 561.328 753.762C552.558 756.016 543.274 755.081 536.569 749.561C531.186 745.136 528.6 738.606 523.7 733.754C509.708 719.903 483.176 724.369 466.225 713.458C455.418 706.5 450.202 694.328 439.859 686.833C426.461 677.12 407.388 677.068 391.139 672C388.823 672.963 386.44 673.783 383.982 674.399C376.692 676.223 368.743 676.579 362.329 680.165C355.916 683.753 352.199 692.512 357.599 697.244C360.465 699.755 364.788 700.231 368.755 700.789C388.543 703.565 407.342 711.724 421.995 723.904C440.806 739.531 452.153 760.787 465.371 780.448C467.162 783.109 469.184 785.853 471.505 788.271C474.368 780.675 471.607 772.001 474.587 762.986C476.299 757.803 480.636 752.958 486.567 751.859Z" fill="#A4A9BA"/>
<path d="M781.337 360.722C795.889 375.426 791.176 428.553 810.487 432.495C818.861 434.202 827.078 427.128 828.097 419.521C829.254 410.878 822.683 404.188 820.816 396.124C817.848 383.312 821.899 371.105 825.418 358.796C828.697 347.33 830.221 333.976 821.937 324.734C819.336 321.834 815.858 319.476 814.125 316.098C810.854 309.739 814.807 302.214 813.4 295.332C812.302 289.985 808.218 285.8 804.301 281.5C789.198 303.847 776.091 323.667 769.5 347.86C770.08 348.935 770.709 349.98 771.457 350.978C774.198 354.619 778.084 357.434 781.337 360.722Z" fill="#7F989D"/>
<path d="M691.337 590.337C690.277 586.934 689.878 583.502 689.869 580.042C689.843 568.433 694.436 556.537 695.08 544.718C695.965 528.465 686.74 512.595 674 501C673 505.5 672.489 509.511 672 514C669.763 534.498 666.434 547.525 659.216 566.384C657.987 569.601 656.967 572.905 656.111 576.272C647.912 608.513 654.521 646.875 632.125 674.214C626.399 681.2 618.881 686.881 612.986 693.752C604.225 703.965 596.305 721.952 589 733C601.533 728.678 614.235 713.574 623.203 704.417C630.016 697.458 636.829 690.5 643.642 683.541C651.422 675.598 659.405 667.324 662.833 657.231C664.357 652.75 665.69 649.201 668 645C675.069 632.147 695.787 625.898 697.646 611.678C698.607 604.301 693.571 597.493 691.337 590.337Z" fill="#7F989D"/>
<path d="M719.432 471.445C726.378 477.689 748.509 474.73 753.414 466.945C758.086 459.533 752.863 459.79 750.795 453.362C749.482 449.281 745.87 440.493 743.936 436.201C743.421 435.063 742.564 434.226 741.504 433.559C736.555 438.045 730.255 441.154 723.99 439.021C719.205 437.388 716.283 433.173 712.465 430.131C708.646 427.087 702.028 425.465 698.827 429.026C693.253 435.626 691.219 444.505 693.445 452.528C694.356 455.81 695.95 459.183 695 462.457C694.155 465.37 691.522 467.465 689 469.541C702.037 467.44 714.209 466.748 719.432 471.445Z" fill="#5D7F43"/>
<path d="M732.801 539.257C730.567 545.583 733.151 552.725 730.128 558.814C727.579 563.956 721.608 567.219 717.414 571.538C713.222 575.854 711.323 583.108 716.627 586.451C718.066 587.356 719.887 587.849 721.089 588.978C725.657 593.27 716.886 599.818 718.78 605.357C722.703 607.614 728.514 605.447 730.713 601.905C732.909 598.36 732.402 594.079 731.36 590.182C730.314 586.284 728.779 582.381 729.093 578.395C729.568 572.405 734.083 567.282 737.721 562.115C741.362 556.948 744.289 550.575 741.423 545.077C743.983 541.951 750.443 544.328 751.678 547.979C752.91 551.628 751.076 555.441 750.106 559.145C749.136 562.854 749.535 567.512 753.473 569.369C754.603 569.9 755.957 570.16 756.834 570.958C758.887 572.832 756.79 575.863 754.361 577.386C751.932 578.915 748.827 580.403 748.559 582.941C748.087 587.422 756.243 588.628 758.896 592.534C760.533 594.947 759.863 598.215 761.911 600.39C763.14 601.697 765.094 602.324 766.734 603.256C770.177 605.207 772.213 608.472 775.242 610.86C778.271 613.245 783.482 614.542 786.377 612.039C789.258 609.545 787.711 605.48 786.639 602.121C784.213 594.506 785.41 586.12 789.91 579.197C792.095 575.841 795.086 572.662 795.602 568.86C796.146 564.845 793.807 560.996 791.544 557.43C785.285 547.588 777.788 536.855 765.062 533.649C763.146 533.165 761.066 532.831 759.58 531.704C754.579 527.902 761.171 521.22 760.746 515.566C760.035 506.097 741.778 505.487 736.783 496.98C736.011 495.665 735.499 494.097 734.01 493.331C732.149 492.369 729.659 493.175 728.048 494.412C716.671 503.143 732.525 508.113 736.707 513.944C743.779 523.802 736.18 529.672 732.801 539.257Z" fill="#7F989D"/>
<path d="M317.033 912.902C317.006 912.53 316.977 912.16 316.945 911.791C316.974 911.698 317.004 911.605 317.033 911.515L317.426 911.622C317.295 912.048 317.164 912.475 317.033 912.902Z" fill="#343619"/>
<path d="M311.047 835.327C310.948 835.226 310.851 835.128 310.75 835.029C311.399 834.696 312.072 834.392 312.765 834.127L312.922 834.479C312.279 834.734 311.652 835.016 311.047 835.327Z" fill="#6F876E"/>
<path fill-rule="evenodd" clip-rule="evenodd" d="M1440 1047.7L1404.35 1068.82C1369.94 1089.94 1299.88 1132.19 1229.81 1165.99C1158.52 1199.79 1088.46 1225.14 1018.4 1229.36C948.333 1233.59 878.271 1216.69 808.208 1182.89C738.146 1149.09 666.854 1098.39 596.792 1068.82C526.729 1039.25 456.667 1030.8 386.604 1047.7C316.542 1064.6 246.479 1106.84 175.188 1115.29C105.125 1123.74 35.0625 1098.39 0.645874 1085.72L-35 1073.05V997H0.645874C35.0625 997 105.125 997 175.188 997C246.479 997 316.542 997 386.604 997C456.667 997 526.729 997 596.792 997C666.854 997 738.146 997 808.208 997C878.271 997 948.333 997 1018.4 997C1088.46 997 1158.52 997 1229.81 997C1299.88 997 1369.94 997 1404.35 997H1440V1047.7Z" fill="#416437"/>
</svg>
