<svg width="19" height="19" viewBox="0 0 19 19" fill="none" xmlns="http://www.w3.org/2000/svg">
<g clip-path="url(#clip0_1377_2774)">
<path d="M11.1777 11.1782C10.9603 11.4115 10.6981 11.5987 10.4067 11.7285C10.1154 11.8583 9.8009 11.9281 9.482 11.9337C9.16311 11.9394 8.84635 11.8807 8.55062 11.7612C8.2549 11.6418 7.98625 11.464 7.76073 11.2385C7.5352 11.013 7.35741 10.7443 7.23796 10.4486C7.11851 10.1529 7.05985 9.83609 7.06548 9.5172C7.0711 9.19831 7.1409 8.88382 7.27071 8.59249C7.40052 8.30115 7.58767 8.03895 7.82102 7.82152M14.2019 14.2024C12.8486 15.2339 11.2007 15.8054 9.49935 15.8332C3.95768 15.8332 0.791016 9.49986 0.791016 9.49986C1.77576 7.66469 3.14158 6.06134 4.79685 4.79736L14.2019 14.2024ZM7.83685 3.35652C8.38178 3.22897 8.93969 3.16521 9.49935 3.16652C15.041 3.16652 18.2077 9.49986 18.2077 9.49986C17.7271 10.3989 17.154 11.2453 16.4977 12.0253L7.83685 3.35652Z" stroke="#FF5F5F" stroke-width="2" stroke-linecap="round" stroke-linejoin="round"/>
<path d="M0.791016 0.791504L18.2077 18.2082" stroke="#FF5F5F" stroke-width="2" stroke-linecap="round" stroke-linejoin="round"/>
</g>
<defs>
<clipPath id="clip0_1377_2774">
<rect width="19" height="19" fill="white"/>
</clipPath>
</defs>
</svg>
