<svg width="27" height="27" viewBox="0 0 27 27" fill="none" xmlns="http://www.w3.org/2000/svg">
<path fill-rule="evenodd" clip-rule="evenodd" d="M7.3125 12.6562C7.3125 13.4329 7.9421 14.0625 8.71875 14.0625C9.4954 14.0625 10.125 13.4329 10.125 12.6562C10.125 11.8796 9.4954 11.25 8.71875 11.25C7.9421 11.25 7.3125 11.8796 7.3125 12.6562ZM14.3438 14.0625C13.5671 14.0625 12.9375 13.4329 12.9375 12.6562C12.9375 11.8796 13.5671 11.25 14.3438 11.25C15.1204 11.25 15.75 11.8796 15.75 12.6562C15.75 13.4329 15.1204 14.0625 14.3438 14.0625ZM19.9688 14.0625C19.1921 14.0625 18.5625 13.4329 18.5625 12.6562C18.5625 11.8796 19.1921 11.25 19.9688 11.25C20.7454 11.25 21.375 11.8796 21.375 12.6562C21.375 13.4329 20.7454 14.0625 19.9688 14.0625Z" fill="#28303F"/>
</svg>
