<svg width="27" height="27" viewBox="0 0 27 27" fill="none" xmlns="http://www.w3.org/2000/svg">
<path d="M24.75 15.75L21.4436 13.3694C19.7255 12.1324 17.3775 12.2602 15.8039 13.6765L11.1961 17.8235C9.62248 19.2398 7.27447 19.3676 5.55638 18.1306L2.25 15.75M6.75 24.75H20.25C22.7353 24.75 24.75 22.7353 24.75 20.25V6.75C24.75 4.26472 22.7353 2.25 20.25 2.25H6.75C4.26472 2.25 2.25 4.26472 2.25 6.75V20.25C2.25 22.7353 4.26472 24.75 6.75 24.75ZM12.375 9.5625C12.375 11.1158 11.1158 12.375 9.5625 12.375C8.0092 12.375 6.75 11.1158 6.75 9.5625C6.75 8.0092 8.0092 6.75 9.5625 6.75C11.1158 6.75 12.375 8.0092 12.375 9.5625Z" stroke="#A1A1A1" stroke-width="1.5" stroke-linecap="round"/>
</svg>
