<svg width="124" height="124" viewBox="0 0 124 124" fill="none" xmlns="http://www.w3.org/2000/svg">
<path opacity="0.4" d="M10.334 30.9999C10.334 19.586 19.5868 10.3333 31.0007 10.3333H93.0006C104.415 10.3333 113.667 19.586 113.667 30.9999V92.9999C113.667 104.414 104.415 113.667 93.0006 113.667H31.0006C19.5868 113.667 10.334 104.414 10.334 92.9999V30.9999Z" fill="#C0C0C0"/>
<path d="M31.0006 113.666H93.0006C104.415 113.666 113.667 104.413 113.667 92.9992V72.3326L98.4824 61.3995C90.592 55.7183 79.8085 56.3055 72.5816 62.8098L51.4198 81.8554C44.1928 88.3597 33.4093 88.9468 25.5189 83.2657L10.334 72.3326V92.9992C10.334 104.413 19.5868 113.666 31.0006 113.666Z" fill="#C0C0C0"/>
<circle cx="43.9167" cy="43.9167" r="12.9167" fill="#C0C0C0"/>
</svg>
